<?xml version="1.0" standalone="no"?>
<!DOCTYPE svg PUBLIC "-//W3C//DTD SVG 20010904//EN"
 "http://www.w3.org/TR/2001/REC-SVG-20010904/DTD/svg10.dtd">
<svg version="1.0" xmlns="http://www.w3.org/2000/svg"
 width="640.000000pt" height="1280.000000pt" viewBox="0 0 640.000000 1280.000000"
 preserveAspectRatio="xMidYMid meet">
<metadata>
Created by potrace 1.15, written by Peter Selinger 2001-2017
</metadata>
<g transform="translate(0.000000,1280.000000) scale(0.100000,-0.100000)"
fill="#000000" stroke="none">
<path d="M3805 12769 c-60 -16 -177 -38 -260 -49 -215 -29 -298 -45 -490 -96
-109 -29 -188 -56 -219 -75 -27 -17 -70 -34 -95 -39 -25 -5 -73 -21 -105 -35
-33 -15 -92 -30 -132 -34 -40 -5 -77 -12 -83 -15 -18 -11 -13 -37 16 -78 33
-49 34 -90 2 -124 -54 -60 -172 -73 -244 -29 -78 48 -150 76 -212 82 -43 5
-88 -11 -343 -120 -58 -25 -170 -65 -250 -89 -119 -37 -146 -48 -148 -64 -4
-31 33 -70 94 -99 39 -18 65 -40 89 -74 32 -44 82 -79 138 -95 16 -5 18 -13
12 -60 -4 -30 -4 -59 -1 -64 4 -6 34 4 74 24 37 19 105 43 152 55 47 11 125
34 173 50 102 34 143 37 151 12 8 -27 26 -192 26 -244 0 -50 -23 -94 -38 -71
-5 7 -12 68 -15 135 -3 67 -9 130 -12 139 -11 29 -25 10 -25 -33 0 -49 -15
-79 -38 -79 -10 0 -27 -7 -38 -15 -16 -13 -17 -16 -4 -25 8 -5 30 -10 49 -10
l34 0 -7 -67 c-4 -38 -13 -74 -20 -81 -7 -7 -41 -17 -77 -23 -117 -18 -289
-77 -289 -99 0 -15 48 -12 117 9 35 11 86 22 115 26 29 4 68 15 86 26 18 10
40 19 48 19 20 0 34 -41 34 -101 0 -72 16 -60 30 24 22 126 40 149 61 75 21
-78 19 -75 28 -58 5 8 13 44 20 79 16 97 25 97 48 -4 9 -40 19 -65 26 -62 7 2
16 33 21 68 7 52 13 67 30 75 13 6 26 27 35 59 l15 50 9 -47 c10 -51 30 -64
41 -25 3 12 6 48 6 80 0 58 12 76 24 35 11 -38 29 -363 23 -390 -4 -16 -18
-30 -37 -37 -16 -6 -43 -16 -60 -22 -44 -17 -38 -37 12 -41 38 -3 69 -28 34
-28 -9 0 -16 -4 -16 -10 0 -5 11 -10 23 -10 l24 0 6 -342 c7 -355 14 -418 46
-418 11 0 21 6 23 13 2 6 0 109 -5 227 -7 149 -6 285 2 445 7 127 12 325 12
440 l-1 210 168 38 c92 20 181 40 199 43 41 8 83 -2 83 -20 0 -13 -14 -21 -84
-46 -42 -15 -20 -32 54 -41 34 -4 69 -14 79 -23 10 -9 38 -64 62 -121 45 -107
73 -155 84 -143 9 8 -39 146 -75 218 -32 63 -38 94 -17 88 12 -4 67 -72 86
-106 17 -29 33 1 38 72 l6 65 29 -6 c19 -4 35 0 48 12 18 16 19 16 22 -12 5
-42 30 -35 44 12 11 42 31 50 26 12 -3 -28 39 -102 58 -102 7 0 18 15 22 33
16 62 68 26 68 -48 0 -16 4 -31 9 -35 16 -9 31 30 31 79 0 25 4 47 9 51 16 9
30 -28 41 -106 11 -74 25 -106 34 -78 3 8 10 52 16 98 14 122 37 137 51 35 4
-31 10 -59 13 -62 13 -12 28 18 34 69 7 51 9 55 42 65 36 11 46 25 93 129 12
28 27 48 32 45 14 -7 9 -273 -5 -300 -6 -12 -21 -20 -35 -20 -34 0 -32 -28 5
-75 17 -21 30 -41 30 -45 0 -17 -62 -59 -115 -79 -70 -26 -73 -26 -85 4 -6 15
-17 25 -30 25 -11 0 -20 5 -20 10 0 12 -30 13 -49 1 -11 -7 -5 -18 29 -49 42
-39 47 -62 11 -62 -9 0 -26 -7 -37 -15 -28 -21 -44 -18 -44 9 l0 24 -52 -20
c-103 -38 -102 -68 0 -68 97 1 150 16 207 60 62 48 98 56 103 22 2 -12 14 -33
28 -47 18 -18 24 -36 25 -67 0 -24 4 -126 8 -227 6 -163 9 -185 26 -197 22
-16 24 -14 -45 -52 -57 -32 -145 -56 -562 -157 -131 -31 -238 -61 -238 -67 0
-22 161 -1 275 35 118 38 185 53 280 62 33 4 98 13 144 21 117 21 115 25 120
-172 4 -188 -2 -239 -32 -258 -12 -8 -73 -24 -135 -35 -107 -19 -162 -39 -162
-61 0 -15 51 -12 181 12 73 13 123 18 128 12 5 -5 11 -64 13 -132 l5 -122 -46
-28 c-25 -16 -59 -33 -75 -38 -31 -11 -55 -38 -43 -50 7 -7 109 10 164 27 46
15 52 44 63 290 6 118 15 255 21 304 5 50 11 182 12 295 2 220 -1 236 -54 302
-21 26 -22 29 -6 46 15 16 16 37 10 174 -7 172 -2 208 26 208 11 0 59 -15 107
-34 49 -19 122 -40 163 -47 68 -12 75 -11 87 5 22 31 27 122 15 272 -13 162
-16 174 -43 174 -11 0 -43 20 -70 45 -28 25 -57 45 -65 45 -7 0 -48 17 -89 37
-66 33 -75 41 -84 72 -14 55 -21 192 -12 231 10 44 36 47 39 5 0 -16 2 -38 2
-47 1 -10 7 -18 15 -18 15 0 20 12 31 73 6 39 19 48 29 21 3 -9 6 -52 6 -97 0
-76 10 -121 23 -101 2 5 8 38 12 74 8 72 19 100 39 100 9 0 15 -27 19 -97 6
-95 21 -163 36 -163 5 0 11 48 14 106 4 58 9 110 13 115 14 24 24 -9 25 -84 1
-119 10 -171 32 -175 15 -3 17 7 17 109 l0 112 48 -7 c73 -9 173 -64 194 -105
23 -46 14 -56 -28 -30 -63 39 -86 -5 -39 -75 14 -20 28 -49 31 -64 7 -31 59
-112 122 -191 94 -118 117 -201 107 -385 -6 -118 1 -165 21 -135 9 14 32 420
26 439 -2 6 -9 10 -16 10 -18 0 -56 43 -56 63 0 10 8 17 20 17 32 0 24 21 -31
76 -55 55 -61 88 -17 82 18 -2 24 2 26 22 5 53 24 130 32 130 9 0 16 -25 25
-95 8 -60 25 -118 33 -111 3 3 8 47 13 97 4 50 10 93 13 96 15 16 21 -20 27
-165 4 -86 7 -159 8 -162 6 -20 21 43 31 130 13 119 19 150 30 150 12 0 20
-86 20 -231 0 -78 -4 -139 -9 -139 -5 0 -11 6 -14 13 -3 8 -8 9 -16 1 -9 -8
-9 -45 -1 -145 5 -74 10 -169 10 -211 0 -84 6 -108 25 -108 21 0 25 25 25 183
1 167 13 181 31 35 28 -229 43 -283 77 -276 39 7 39 273 0 302 -8 6 -17 20
-20 31 -4 11 -16 47 -28 80 -18 48 -24 89 -28 207 -3 93 -1 163 7 192 14 57 8
71 -45 102 -24 14 -52 38 -63 52 -16 22 -22 25 -32 15 -21 -20 -37 -15 -54 16
-13 27 -19 29 -50 24 -26 -4 -36 -2 -41 10 -4 12 -20 16 -62 16 -46 -1 -81 9
-182 51 -69 28 -163 62 -210 76 -47 13 -89 30 -95 38 -5 7 -20 18 -32 25 -13
6 -30 26 -39 44 -20 37 -31 47 -60 47 -12 0 -27 6 -33 14 -9 11 -1 20 43 45
55 31 106 85 106 113 0 22 -25 40 -51 36 -16 -2 -26 -15 -36 -43 -17 -50 -46
-80 -68 -71 -14 5 -16 15 -12 49 4 23 9 67 13 98 9 80 16 89 53 61 17 -13 81
-35 143 -51 62 -16 162 -47 221 -71 67 -26 132 -44 170 -47 63 -6 97 -17 97
-32 0 -5 -35 -21 -77 -36 -80 -28 -162 -36 -230 -20 -29 6 -33 5 -33 -14 0
-20 44 -51 73 -51 7 0 29 -16 48 -36 l34 -36 -34 7 c-19 4 -73 25 -120 47
-100 46 -193 72 -227 64 -32 -8 -30 -20 9 -49 49 -37 87 -54 158 -71 147 -34
529 -176 599 -222 19 -13 69 -35 110 -48 41 -14 81 -33 88 -43 6 -9 12 -46 12
-82 0 -36 7 -154 14 -261 8 -107 18 -405 22 -661 l7 -466 -23 -16 c-21 -15
-22 -20 -16 -84 4 -37 11 -72 17 -77 6 -6 9 -4 9 6 0 9 5 29 11 45 15 41 27
14 35 -83 7 -81 -9 -194 -27 -194 -5 0 -9 29 -9 65 0 37 -4 65 -10 65 -6 0
-10 -36 -10 -89 0 -78 3 -92 20 -104 27 -19 40 -59 40 -126 0 -116 22 -153 47
-80 15 44 16 194 2 221 -7 12 -13 69 -15 127 -2 58 -5 138 -7 176 -2 39 -9
250 -15 470 -21 733 -43 1075 -75 1173 -14 44 -30 52 -287 154 -96 38 -192 76
-214 86 l-38 16 7 50 c3 28 13 58 21 67 17 19 68 35 141 44 73 9 85 27 42 65
-75 67 -185 141 -223 151 -240 62 -395 113 -446 149 -112 77 -189 86 -365 39z
m193 -41 c2 -11 -5 -18 -20 -20 -22 -3 -23 -8 -29 -118 -4 -63 -3 -119 1 -124
16 -17 30 6 31 52 0 26 4 65 8 87 7 36 8 32 16 -49 8 -94 2 -193 -13 -208 -5
-5 -19 -5 -35 1 -23 9 -28 6 -52 -25 -29 -38 -48 -35 -59 12 -10 39 -39 26
-54 -24 -19 -58 -38 -53 -57 13 -9 30 -20 55 -25 55 -11 0 -20 -26 -20 -61 0
-17 -5 -39 -11 -50 -14 -26 -34 -11 -43 32 -7 38 -30 34 -34 -7 -7 -75 -44
-109 -50 -46 -2 17 -10 36 -18 42 -15 13 -18 7 -14 -37 2 -29 -17 -63 -35 -63
-8 0 -18 15 -23 33 -11 42 -31 41 -55 -5 -25 -46 -61 -62 -207 -89 -63 -11
-146 -29 -185 -40 -38 -10 -100 -19 -138 -19 -101 0 -129 -24 -91 -78 19 -27
38 -28 70 -3 14 11 50 22 87 26 34 4 95 18 135 31 73 24 127 30 149 16 20 -12
32 -58 39 -142 4 -45 10 -83 15 -85 10 -7 23 156 16 206 -6 48 14 54 33 8 13
-31 9 -195 -5 -232 -8 -18 -71 -50 -85 -42 -4 2 -10 35 -13 72 -8 88 -29 165
-45 171 -11 3 -13 -23 -10 -139 3 -142 3 -144 -19 -147 -17 -3 -24 3 -29 25
-3 15 -10 42 -15 59 -11 37 -68 106 -69 84 -1 -8 -2 -31 -3 -50 -2 -28 -6 -36
-24 -38 -17 -3 -26 5 -37 33 -17 41 -39 42 -44 3 -7 -57 -86 -92 -282 -128
-63 -11 -115 -20 -117 -20 -2 0 -3 21 -3 48 0 53 -26 104 -41 81 -5 -8 -9 -31
-9 -52 0 -41 -14 -77 -30 -77 -6 0 -10 19 -10 43 0 24 -7 53 -17 67 l-17 24
-7 -24 c-4 -14 -7 -51 -8 -82 -1 -75 -17 -82 -31 -13 -16 78 -10 117 20 132
118 57 138 63 208 63 85 0 93 13 31 54 -60 40 -45 56 64 71 30 4 57 15 75 32
39 36 72 51 138 62 33 5 77 16 99 24 22 8 60 18 85 22 25 4 63 16 84 27 32 17
53 20 112 16 l72 -5 18 40 c10 22 31 55 46 75 15 19 28 43 28 54 0 32 -29 81
-68 115 -28 25 -34 35 -25 44 19 19 54 3 113 -49 57 -51 98 -77 107 -69 20 20
-66 127 -101 127 -32 0 -39 11 -19 32 22 24 65 23 89 -3 24 -27 71 -51 90 -47
11 2 5 14 -21 41 -37 39 -43 56 -22 61 6 1 48 15 93 30 44 15 100 28 125 29
l44 2 6 -101 c7 -109 14 -133 33 -114 7 7 12 56 13 127 1 111 2 117 25 130 30
17 72 12 76 -9z m-601 -108 c-15 -5 -51 -20 -79 -34 -29 -14 -60 -26 -69 -26
-10 0 -82 -23 -161 -51 -305 -109 -364 -129 -391 -129 -46 0 -26 24 25 31 24
4 62 16 84 27 67 34 365 142 459 167 86 22 200 35 132 15z m-62 -151 c4 -6 4
-13 1 -16 -7 -7 -46 26 -46 39 0 10 36 -8 45 -23z m-237 -63 c8 -15 11 -31 7
-34 -9 -9 -45 36 -45 55 0 23 23 10 38 -21z m219 -22 c18 -14 33 -32 33 -40 0
-24 -17 -16 -50 26 -37 46 -31 51 17 14z m-289 -25 c45 -46 69 -86 58 -96 -10
-10 -116 101 -116 121 0 26 17 19 58 -25z m-416 -13 c19 -14 98 -119 118 -155
6 -13 9 -25 6 -28 -9 -10 -100 62 -123 98 -12 19 -31 46 -42 61 -12 14 -21 29
-21 32 0 11 45 5 62 -8z m252 -57 c27 -32 33 -49 17 -49 -9 0 -34 32 -55 68
-14 24 13 11 38 -19z m96 16 c7 -9 10 -18 7 -22 -8 -7 -37 15 -37 28 0 14 16
11 30 -6z m-182 -51 c35 -53 41 -74 15 -53 -21 18 -73 89 -73 101 0 21 27 -1
58 -48z m1182 -44 c0 -29 -4 -40 -15 -40 -10 0 -15 10 -15 33 0 19 3 37 7 40
15 16 23 5 23 -33z m-168 -35 c14 -51 23 -275 10 -275 -17 0 -32 76 -47 238
-7 68 -6 74 11 70 10 -1 21 -16 26 -33z m-79 -181 c2 -119 -5 -154 -23 -124
-20 32 -32 258 -16 295 8 18 10 17 23 -15 10 -23 15 -74 16 -156z m-106 110
l2 -39 -14 35 c-17 45 -18 53 -2 48 6 -3 13 -22 14 -44z m-947 10 c0 -16 -68
-30 -81 -17 -12 12 6 29 36 35 27 6 45 -1 45 -18z m-802 -3 c3 -8 -1 -12 -9
-9 -7 2 -15 10 -17 17 -3 8 1 12 9 9 7 -2 15 -10 17 -17z m1681 -117 c3 -94 0
-119 -13 -139 -32 -48 -39 -20 -33 121 6 139 11 164 31 144 6 -6 12 -58 15
-126z m-1759 107 c0 -12 -20 -25 -27 -18 -7 7 6 27 18 27 5 0 9 -4 9 -9z
m1645 -132 c0 -141 -8 -193 -28 -186 -9 3 -12 43 -10 151 1 154 5 180 26 173
9 -3 12 -39 12 -138z m-907 114 c-3 -19 -41 -35 -190 -82 -105 -34 -118 -36
-118 -21 0 22 112 75 225 105 70 19 87 19 83 -2z m1439 -60 c-2 -16 -4 -5 -4
22 0 28 2 40 4 28 2 -13 2 -35 0 -50z m-1952 27 c14 -16 15 -20 4 -20 -16 0
-39 19 -39 32 0 14 16 9 35 -12z m-394 0 c25 -14 27 -64 2 -56 -10 3 -37 10
-60 16 -49 12 -60 25 -36 39 23 13 69 14 94 1z m2293 -88 c9 -70 -5 -136 -29
-140 -19 -3 -20 2 -14 100 9 132 7 126 23 105 8 -10 17 -40 20 -65z m-2056 40
c4 -23 -4 -27 -27 -13 -17 11 -7 45 12 39 6 -3 13 -14 15 -26z m-308 -28 c70
-46 100 -74 100 -91 0 -23 -54 -14 -101 16 -24 16 -66 32 -93 36 -58 8 -96 24
-96 40 0 18 40 34 90 34 36 1 57 -6 100 -35z m2075 -39 c7 -66 3 -95 -14 -95
-20 0 -34 120 -17 148 15 25 25 10 31 -53z m1105 36 c14 -28 13 -134 -2 -129
-24 8 -50 123 -31 141 11 12 22 8 33 -12z m-2220 -1 c0 -17 -51 -37 -153 -60
-69 -16 -101 -20 -109 -12 -16 16 59 50 149 66 97 18 113 19 113 6z m-810 -26
c0 -17 -22 -14 -28 4 -2 7 3 12 12 12 9 0 16 -7 16 -16z m384 -73 c3 -5 -1
-14 -9 -21 -13 -10 -19 -9 -35 5 -11 10 -20 27 -20 37 0 17 2 18 29 3 17 -8
32 -19 35 -24z m-119 -5 c21 -15 14 -46 -10 -46 -12 0 -35 36 -35 56 0 9 27 3
45 -10z m-80 -43 c10 -14 13 -29 8 -34 -10 -10 -157 -49 -184 -49 -33 0 -181
78 -187 99 -7 23 83 6 154 -29 34 -17 69 -30 78 -30 15 0 15 2 1 31 -23 43
-12 47 30 10 41 -35 48 -37 66 -15 10 12 10 20 1 34 -19 30 13 14 33 -17z
m2183 -28 c8 -106 4 -272 -7 -311 -13 -49 -36 -73 -53 -56 -8 8 -8 35 1 100 6
48 11 138 11 199 0 60 3 113 7 117 4 4 14 5 22 4 11 -2 16 -18 19 -53z m-258
10 c0 -14 -4 -25 -10 -25 -5 0 -10 11 -10 25 0 14 5 25 10 25 6 0 10 -11 10
-25z m-250 -68 c0 -4 -12 -7 -27 -5 -25 3 -28 8 -31 43 l-2 40 30 -35 c16 -19
30 -38 30 -43z m158 51 c-4 -27 -28 -36 -28 -10 0 20 8 32 22 32 5 0 8 -10 6
-22z m-1394 -51 c15 -47 16 -60 6 -72 -7 -9 -16 -12 -21 -8 -7 8 -29 104 -29
129 0 34 26 4 44 -49z m-77 -34 c3 -34 0 -54 -11 -68 -24 -31 -36 -3 -36 85
l0 74 21 -21 c14 -14 23 -38 26 -70z m1373 42 c0 -16 -6 -25 -15 -25 -18 0
-20 21 -3 38 17 17 18 16 18 -13z m-535 -5 c17 -19 15 -50 -4 -50 -25 0 -51
47 -34 63 10 11 19 8 38 -13z m1086 -155 c-4 -149 -11 -185 -37 -185 -14 0
-16 17 -12 153 2 83 7 158 12 165 4 7 15 12 24 10 15 -3 17 -19 13 -143z m91
-33 c-3 -137 -12 -187 -32 -187 -13 0 -15 24 -14 140 0 144 12 201 37 176 8
-8 11 -51 9 -129z m72 81 c4 -9 12 -63 18 -120 8 -79 8 -111 -1 -130 -15 -34
-31 -19 -42 39 -10 51 -12 189 -3 212 8 21 20 20 28 -1z m-1996 -105 c-3 -34
-20 -42 -26 -13 -5 22 5 45 18 45 7 0 10 -14 8 -32z m-83 -18 c0 -16 -6 -26
-18 -28 -19 -4 -32 20 -23 44 9 25 41 13 41 -16z"/>
<path d="M3713 12630 c-13 -5 -23 -16 -23 -24 0 -20 57 -79 72 -74 21 7 22 80
2 95 -20 15 -21 15 -51 3z"/>
<path d="M4294 12508 c-14 -22 69 -58 169 -75 85 -13 17 38 -92 71 -65 19 -68
19 -77 4z"/>
<path d="M4410 11986 c-13 -35 -13 -122 0 -147 14 -26 37 -24 43 4 8 29 -9
147 -22 160 -7 7 -14 1 -21 -17z"/>
<path d="M4405 11731 c-6 -10 11 -310 21 -376 18 -115 50 -55 39 75 -21 278
-26 310 -45 310 -5 0 -11 -4 -15 -9z"/>
<path d="M4540 11610 c0 -66 -4 -97 -16 -115 -12 -18 -13 -28 -5 -44 7 -12 11
-88 11 -190 0 -186 5 -201 50 -143 20 24 21 34 15 105 -5 66 -4 78 10 83 10 4
22 -1 32 -15 12 -17 18 -20 29 -10 16 13 16 15 18 -80 1 -84 18 -105 35 -44
14 48 14 214 1 283 -8 41 -18 60 -45 84 -19 17 -52 62 -73 101 -22 38 -44 71
-51 73 -8 3 -11 -23 -11 -88z m120 -152 c20 -36 30 -67 30 -95 0 -59 -22 -56
-50 5 -12 26 -26 55 -31 64 -5 10 -9 31 -9 48 0 47 26 37 60 -22z"/>
<path d="M2710 11631 c-14 -5 -44 -18 -67 -30 l-43 -21 0 -338 c-1 -410 -13
-650 -35 -694 -8 -17 -13 -33 -10 -36 10 -10 275 10 285 22 15 19 40 159 30
170 -14 14 -38 -11 -60 -61 -29 -65 -44 -48 -36 41 6 66 9 73 41 99 25 20 35
37 35 56 0 41 8 43 55 16 75 -45 98 -28 71 52 -23 68 -22 73 24 73 50 0 61 21
31 58 -11 15 -31 44 -43 64 -22 37 -48 51 -48 26 0 -7 7 -22 15 -32 17 -22 12
-34 -21 -46 -22 -9 -24 -15 -24 -75 0 -49 -3 -65 -14 -65 -8 0 -17 8 -21 18
-4 9 -11 167 -16 351 -6 221 -13 338 -20 347 -12 15 -87 18 -129 5z m-11 -577
l29 -399 -31 -30 c-18 -17 -37 -39 -43 -50 -7 -11 -14 -18 -16 -15 -3 3 -1
204 3 448 7 391 13 494 26 455 2 -5 17 -190 32 -409z m76 29 l-7 -28 -9 23
c-5 13 -6 36 -2 50 6 26 6 26 16 5 5 -12 6 -34 2 -50z m5 -193 c0 -42 -14 -54
-23 -20 -6 24 2 60 14 60 5 0 9 -18 9 -40z"/>
<path d="M1654 11585 c-4 -11 -20 -32 -36 -48 l-29 -27 7 -438 c6 -386 5 -445
-10 -507 -13 -58 -18 -172 -25 -662 -5 -326 -13 -598 -18 -605 -4 -7 -11 -231
-14 -498 -6 -520 -30 -1049 -55 -1195 -20 -126 -41 -716 -27 -792 6 -35 7 -80
2 -113 -11 -79 -11 -374 1 -445 8 -50 1 -227 -13 -335 -1 -8 5 -16 14 -18 15
-3 17 21 24 213 6 194 9 216 25 225 10 6 119 19 242 31 228 22 288 33 296 58
5 15 -29 13 -183 -8 -77 -11 -324 -15 -349 -5 -14 5 -16 47 -16 363 0 319 19
787 36 881 4 19 12 41 18 49 7 10 11 96 12 265 0 255 17 910 33 1311 6 165 13
230 25 259 13 32 14 45 4 77 -8 30 -8 45 0 65 17 36 15 91 -3 98 -16 6 -21 66
-6 82 5 5 3 37 -6 74 -8 37 -11 82 -7 105 3 22 9 102 13 177 6 111 11 141 25
157 15 17 16 25 8 51 -24 69 -25 144 -2 231 19 74 21 99 15 206 -6 115 -5 125
14 149 17 22 21 41 21 101 0 55 -3 74 -12 71 -7 -3 -14 -17 -16 -31 -2 -15 -7
-27 -12 -27 -15 0 -21 54 -21 206 0 165 13 232 24 125 8 -77 21 -103 50 -99
31 4 35 36 5 40 -22 3 -23 6 -20 83 3 59 -1 85 -12 100 l-15 20 -7 -20z"/>
<path d="M2960 11521 c0 -20 38 -82 78 -123 26 -28 52 -37 52 -18 0 17 -89
148 -106 154 -23 9 -24 8 -24 -13z"/>
<path d="M3760 11422 c-46 -37 7 -56 75 -28 19 8 35 22 35 30 0 24 -81 21
-110 -2z"/>
<path d="M3353 11395 c-71 -13 -113 -29 -113 -43 1 -27 20 -35 69 -28 73 10
175 43 203 66 l23 19 -55 0 c-30 -1 -87 -7 -127 -14z"/>
<path d="M4884 11355 c-8 -43 4 -216 16 -235 14 -23 23 -3 28 59 5 62 -14 197
-28 206 -5 3 -12 -10 -16 -30z"/>
<path d="M2985 11320 c-7 -11 17 -71 45 -110 31 -44 27 -63 -12 -55 l-33 7 45
-46 c63 -66 73 -63 74 24 1 28 5 36 23 38 30 4 36 29 16 69 -14 28 -31 40 -78
59 -68 27 -72 28 -80 14z"/>
<path d="M4172 11120 c-5 -14 -13 -52 -17 -85 -13 -106 -34 -119 -49 -32 -11
58 -27 87 -49 87 -15 0 -18 -5 -13 -22 3 -13 6 -58 6 -100 0 -96 7 -102 139
-123 51 -9 108 -22 128 -30 49 -21 69 -19 87 7 19 26 21 123 5 181 -18 66 -39
41 -39 -48 0 -63 -14 -105 -34 -105 -20 0 -26 32 -26 136 0 68 -4 95 -15 104
-25 21 -32 3 -39 -96 -4 -53 -9 -101 -13 -107 -12 -20 -25 28 -34 124 -4 55
-13 107 -18 117 -9 15 -11 14 -19 -8z"/>
<path d="M2330 11061 c0 -15 16 -22 34 -15 25 9 19 24 -9 24 -14 0 -25 -4 -25
-9z"/>
<path d="M3423 11058 c-25 -12 -29 -23 -13 -33 17 -10 100 6 100 20 0 25 -48
32 -87 13z"/>
<path d="M3795 11050 c-22 -11 -61 -28 -87 -39 -112 -47 -5 -54 130 -8 53 17
67 26 67 42 0 28 -57 30 -110 5z"/>
<path d="M4465 11048 c-3 -13 -4 -63 -3 -113 3 -107 -20 -218 -46 -223 -9 -2
-36 8 -61 21 -62 35 -103 47 -164 48 -36 1 -58 -3 -69 -15 -25 -25 -4 -36 84
-47 93 -12 199 -56 209 -88 9 -30 32 -26 51 11 21 41 43 166 44 250 0 110 -30
217 -45 156z"/>
<path d="M2132 11038 c-18 -18 -15 -27 14 -38 29 -11 88 13 81 33 -5 17 -79
21 -95 5z"/>
<path d="M4557 11033 c-10 -17 -12 -278 -2 -283 31 -16 61 199 36 263 -10 26
-25 35 -34 20z"/>
<path d="M1905 10985 c-69 -14 -95 -24 -95 -35 0 -14 32 -16 89 -8 63 10 121
33 121 47 0 14 -39 12 -115 -4z"/>
<path d="M4726 10974 c-3 -9 -6 -76 -6 -149 0 -139 11 -198 32 -177 14 14 17
268 5 315 -8 30 -22 35 -31 11z"/>
<path d="M4826 10948 c-3 -18 -7 -99 -10 -180 -4 -131 -3 -150 13 -169 25 -31
39 -18 46 44 6 52 -9 290 -21 321 -10 26 -23 19 -28 -16z"/>
<path d="M4915 10970 c-3 -6 -3 -88 1 -183 7 -175 18 -227 49 -227 20 0 20 67
0 143 -8 32 -15 100 -15 152 0 51 -3 100 -6 109 -7 18 -20 21 -29 6z"/>
<path d="M3180 10944 c-66 -18 -114 -45 -118 -66 -4 -19 25 -28 90 -28 39 0
50 -4 64 -25 14 -21 14 -32 4 -77 -17 -69 -18 -164 -3 -179 23 -23 37 40 40
175 1 71 6 133 11 138 5 5 24 17 43 26 19 9 35 25 37 35 3 15 -5 17 -55 16
-32 0 -83 -7 -113 -15z"/>
<path d="M5035 10844 c-14 -37 -17 -66 -12 -148 5 -106 12 -139 30 -133 19 6
28 58 30 167 2 104 -6 160 -22 160 -4 0 -16 -21 -26 -46z"/>
<path d="M5122 10693 c3 -129 8 -166 24 -151 3 3 10 35 16 71 13 80 4 164 -23
197 l-20 25 3 -142z"/>
<path d="M4630 10784 c-13 -34 -2 -76 19 -72 23 5 29 98 6 98 -8 0 -20 -12
-25 -26z"/>
<path d="M2279 10720 c-37 -19 -54 -44 -43 -61 8 -14 34 -11 94 12 71 27 84
37 69 55 -16 20 -78 16 -120 -6z"/>
<path d="M4075 10702 c-6 -4 -10 -77 -10 -179 0 -185 8 -218 40 -169 15 23 16
42 8 181 -9 148 -16 183 -38 167z"/>
<path d="M1774 10658 c-14 -32 -27 -44 -51 -50 -37 -10 -51 -27 -32 -39 21
-13 147 -11 155 3 4 6 2 14 -4 16 -7 2 -12 19 -12 38 0 36 -15 74 -29 74 -4 0
-16 -19 -27 -42z"/>
<path d="M4166 10628 c-7 -29 -6 -234 3 -273 8 -40 58 -64 135 -65 l59 0 -5
128 c-3 92 -9 136 -22 160 -19 36 -28 39 -51 15 -12 -11 -15 -25 -11 -47 17
-84 17 -141 -1 -175 -31 -60 -39 -49 -46 61 -10 162 -42 265 -61 196z"/>
<path d="M2004 10625 c-18 -15 -18 -15 5 -13 14 2 26 9 29 16 5 17 -10 15 -34
-3z"/>
<path d="M4516 10543 c-4 -38 -2 -120 3 -183 6 -63 11 -118 11 -122 0 -5 5 -8
10 -8 6 0 10 26 10 59 0 69 8 100 21 79 5 -7 9 -22 9 -33 0 -34 20 -92 39
-116 l18 -23 12 21 c16 31 -8 340 -29 373 -9 13 -11 13 -20 0 -5 -8 -10 -29
-10 -47 0 -35 -17 -53 -30 -33 -5 7 -11 33 -15 57 -9 63 -22 53 -29 -24z"/>
<path d="M4376 10539 c-3 -34 -6 -102 -6 -150 l0 -88 37 -26 c74 -49 83 -33
83 142 0 118 -10 149 -41 133 -17 -10 -21 -7 -30 19 -18 51 -35 38 -43 -30z
m69 -176 l-8 -28 -8 30 c-5 17 -6 44 -2 60 l6 30 10 -32 c5 -17 6 -44 2 -60z"/>
<path d="M4687 10498 c-7 -59 8 -270 20 -292 4 -7 23 -26 41 -41 52 -44 57
-30 57 170 0 158 -5 199 -21 183 -3 -4 -9 -72 -14 -153 -4 -80 -10 -149 -14
-152 -14 -15 -20 16 -32 170 -7 89 -13 163 -14 165 0 1 -4 2 -9 2 -4 0 -11
-24 -14 -52z"/>
<path d="M3510 10396 c0 -86 2 -98 24 -123 l24 -28 6 35 c3 19 7 74 10 123 l5
87 -34 0 -35 0 0 -94z"/>
<path d="M4945 10393 c3 -49 7 -151 9 -227 3 -77 10 -144 15 -149 7 -7 16 2
28 29 26 58 26 367 0 407 -9 15 -26 27 -37 27 -17 0 -18 -7 -15 -87z"/>
<path d="M4865 10441 c-3 -6 -3 -53 0 -104 6 -70 3 -107 -9 -153 -23 -91 -21
-118 15 -159 38 -42 54 -45 44 -7 -4 15 -10 117 -14 226 -4 137 -10 201 -18
203 -6 2 -14 -1 -18 -6z"/>
<path d="M5074 10205 c3 -90 9 -172 13 -180 10 -27 43 34 43 80 0 85 -36 265
-53 265 -7 0 -8 -52 -3 -165z"/>
<path d="M2347 10264 c-11 -19 -19 -164 -9 -164 11 0 32 83 32 123 0 26 -15
53 -23 41z"/>
<path d="M4101 10193 c-24 -20 -29 -43 -18 -85 10 -37 29 -35 66 7 38 44 40
72 5 85 -32 13 -28 13 -53 -7z"/>
<path d="M4271 10150 c-12 -7 -14 -39 -11 -177 4 -245 12 -328 30 -328 45 0
60 242 21 349 -18 51 -19 64 -9 98 9 32 9 41 -3 53 -9 9 -19 11 -28 5z"/>
<path d="M3457 10117 c-16 -5 -26 -14 -24 -20 8 -26 97 -19 97 7 0 18 -39 25
-73 13z"/>
<path d="M4453 10080 c6 -50 6 -50 -23 -50 -48 0 -47 -26 3 -43 18 -7 50 19
73 58 10 19 12 18 43 -8 18 -15 38 -27 46 -27 12 0 55 62 55 80 0 21 -43 21
-72 0 l-29 -21 -35 30 c-53 47 -68 42 -61 -19z"/>
<path d="M4184 10075 c-7 -27 -80 -85 -108 -85 -14 0 -21 14 -28 65 -2 11 -10
20 -18 20 -13 0 -15 -32 -17 -215 -2 -204 7 -284 28 -263 8 8 59 268 59 306 1
21 1 21 11 3 8 -12 9 -53 4 -120 -5 -81 -3 -105 8 -121 13 -16 20 -18 44 -10
45 17 56 53 60 215 5 148 -3 220 -24 227 -7 3 -15 -7 -19 -22z m-13 -332 c-9
-15 -10 -13 -11 13 0 17 3 34 8 38 11 12 14 -32 3 -51z"/>
<path d="M2330 10029 c0 -27 3 -30 27 -27 32 4 39 20 18 42 -26 26 -45 20 -45
-15z"/>
<path d="M3313 10036 c-34 -30 -25 -44 33 -53 21 -3 42 -11 45 -16 4 -5 10
-63 14 -128 6 -95 11 -121 25 -134 18 -16 19 -15 29 22 6 21 11 89 11 151 0
112 0 113 -26 123 -15 5 -40 21 -56 34 -36 31 -40 31 -75 1z"/>
<path d="M1880 9983 c-72 -12 -106 -32 -80 -48 15 -9 124 13 172 35 l43 20
-55 -2 c-30 0 -66 -3 -80 -5z"/>
<path d="M2697 9909 c-32 -11 -100 -28 -152 -39 -101 -20 -146 -37 -153 -59
-5 -16 26 -13 178 17 58 11 149 27 204 36 54 9 107 21 119 28 20 10 20 11 2
24 -27 20 -130 17 -198 -7z"/>
<path d="M4384 9909 c-13 -21 -10 -267 4 -280 10 -11 14 -11 25 0 12 13 15
219 2 268 -6 25 -19 30 -31 12z"/>
<path d="M4842 9898 c-8 -8 -12 -47 -11 -117 2 -118 8 -162 26 -168 28 -10 40
255 12 283 -12 11 -17 12 -27 2z"/>
<path d="M4503 9874 c-9 -25 -10 -223 0 -256 8 -32 22 -36 32 -10 12 28 18
204 8 241 -10 39 -30 51 -40 25z"/>
<path d="M4613 9833 c-13 -33 -9 -221 5 -235 11 -10 14 -10 22 2 14 23 23 158
14 203 -10 44 -30 59 -41 30z"/>
<path d="M4935 9841 c-12 -20 -17 -165 -6 -181 17 -25 26 -1 29 80 4 77 -7
126 -23 101z"/>
<path d="M4710 9733 c0 -112 10 -152 31 -123 10 15 5 162 -7 208 -14 51 -24
15 -24 -85z"/>
<path d="M5011 9782 c-6 -11 -11 -54 -11 -94 0 -120 18 -150 47 -81 31 75 -2
238 -36 175z"/>
<path d="M5150 9775 c-24 -29 -31 -103 -15 -174 8 -36 18 -111 23 -166 l7
-100 33 -3 c32 -3 32 -4 32 -55 0 -89 20 -440 27 -482 6 -37 7 -38 14 -15 11
38 11 625 -1 654 -6 17 -17 26 -30 26 -35 0 -52 59 -58 203 -3 70 -8 127 -12
127 -4 0 -13 -7 -20 -15z"/>
<path d="M2735 9704 c-397 -93 -429 -114 -374 -239 21 -47 21 -57 15 -339 -8
-344 -21 -525 -41 -593 -11 -37 -28 -62 -65 -96 -27 -25 -50 -50 -50 -55 0
-22 35 -22 64 -1 27 20 33 21 70 9 23 -7 73 -15 113 -17 l72 -5 -2 -73 c-2
-58 2 -78 15 -91 29 -29 38 -7 38 96 l0 98 48 10 c26 6 85 15 132 21 186 24
283 54 325 101 22 25 16 42 -30 74 -21 16 -29 18 -32 8 -3 -7 -16 -26 -29 -41
-20 -24 -21 -30 -9 -35 25 -9 17 -22 -22 -34 -49 -14 -402 -62 -459 -62 -48 0
-57 11 -21 28 20 9 17 11 -21 11 l-42 1 16 25 c24 37 21 95 -7 118 l-24 19 0
374 c0 398 2 418 44 379 20 -17 21 -17 33 28 23 86 31 38 27 -161 -3 -150 -1
-196 9 -199 8 -3 12 7 12 31 0 40 20 56 68 56 19 0 32 -6 37 -17 3 -10 3 -113
-1 -230 l-7 -213 27 0 c14 0 57 16 95 35 62 31 71 39 87 80 16 43 16 48 1 81
-10 19 -17 57 -17 84 0 28 -5 50 -10 50 -7 0 -10 -37 -8 -99 2 -111 -6 -131
-53 -131 -28 0 -29 2 -29 48 0 60 22 142 55 206 15 28 29 73 32 101 8 66 18
85 48 85 24 0 25 -2 25 -77 1 -96 15 -211 31 -247 8 -17 20 -26 36 -26 29 0
40 24 22 47 -10 11 -17 70 -24 187 -15 266 2 431 47 460 38 23 43 -3 51 -272
12 -398 13 -513 3 -564 -8 -46 -7 -48 15 -48 13 0 29 4 35 8 11 7 3 607 -11
797 -5 69 -3 100 9 134 34 93 11 142 -64 140 -19 -1 -156 -30 -305 -65z m294
7 c24 -15 -1 -54 -52 -81 -38 -20 -48 -22 -61 -11 -19 16 -21 64 -3 79 23 19
94 27 116 13z m-194 -55 c16 -12 18 -18 7 -40 -12 -28 -43 -39 -88 -34 -23 2
-30 9 -32 31 -2 15 -2 27 0 27 2 0 21 7 43 15 50 18 47 18 70 1z m-172 -68 c8
-12 7 -21 -2 -32 -19 -22 -48 -20 -61 5 -23 41 38 68 63 27z m-123 -31 c0 -28
-17 -47 -42 -47 -20 0 -23 21 -8 51 15 28 50 25 50 -4z m290 -72 c5 -14 21
-30 34 -35 36 -13 51 -46 33 -73 -11 -16 -31 -24 -83 -33 -38 -6 -97 -17 -132
-24 -80 -18 -88 -10 -95 87 l-4 72 46 6 c25 3 64 9 86 14 78 17 105 13 115
-14z m36 -194 c-10 -11 -49 -27 -87 -36 -69 -17 -93 -15 -72 6 12 12 124 46
157 48 18 1 18 0 2 -18z"/>
<path d="M1987 9734 c-16 -9 -76 -26 -134 -39 -110 -25 -140 -39 -109 -51 47
-18 258 33 280 68 17 27 -4 39 -37 22z"/>
<path d="M3799 9665 c-126 -27 -142 -35 -159 -75 -26 -62 1 -283 31 -253 23
23 30 225 8 239 -5 3 -9 11 -9 18 0 9 32 17 98 25 103 14 183 38 190 59 5 17
-33 14 -159 -13z"/>
<path d="M3941 9599 c-6 -18 -11 -94 -11 -170 0 -176 -3 -185 -72 -194 -29 -4
-80 -16 -112 -26 -65 -20 -73 -18 -86 17 -13 34 -39 30 -55 -10 -17 -40 -4
-36 -244 -72 -96 -14 -179 -27 -183 -30 -4 -3 -8 -11 -8 -19 0 -10 9 -12 33
-9 262 36 394 53 452 59 39 3 127 17 197 31 168 34 193 23 148 -66 -21 -41
-27 -96 -10 -85 14 9 12 -36 -5 -135 -19 -107 -18 -272 1 -600 21 -332 20
-305 4 -670 -8 -173 -14 -349 -13 -390 5 -179 2 -398 -5 -430 l-8 -35 -84 -1
c-65 0 -102 -7 -159 -27 -41 -15 -90 -27 -108 -27 l-33 0 2 188 3 187 105 7
c128 7 184 22 216 53 31 32 22 55 -22 55 -40 0 -265 -46 -299 -62 -41 -18 -48
-52 -54 -243 l-6 -180 -51 -6 c-52 -7 -94 -23 -94 -38 0 -4 80 -8 178 -7 l177
1 5 -152 c6 -165 14 -189 68 -195 40 -5 37 -25 -5 -43 -36 -16 -37 -17 -19
-31 13 -9 45 -14 91 -14 63 0 74 3 95 25 13 14 27 22 32 17 5 -5 13 -89 18
-188 5 -99 12 -188 16 -197 7 -20 20 -22 30 -5 4 6 6 175 5 376 l-2 365 -26
34 c-24 31 -25 36 -12 61 11 22 15 143 21 617 10 766 7 719 41 782 51 93 71
299 36 364 -22 43 -29 15 -30 -123 0 -138 -12 -208 -34 -211 -6 -1 -11 33 -12
83 -1 47 -7 129 -14 182 -10 85 -9 103 6 148 l17 52 50 -48 c80 -79 91 -112
63 -191 -23 -67 0 -207 33 -201 23 4 29 57 24 213 -3 98 -2 127 7 119 7 -6 16
-71 21 -155 6 -79 13 -157 17 -174 l6 -30 8 25 c4 14 7 87 8 163 1 77 5 137
10 137 14 0 19 -25 26 -145 3 -60 9 -118 11 -127 7 -22 52 -24 80 -4 17 13 19
27 19 155 l-1 140 56 18 c61 20 79 51 25 45 -108 -13 -181 -5 -258 26 -43 18
-92 32 -108 32 -21 0 -29 5 -29 18 0 27 29 62 50 62 38 0 53 42 48 140 -2 49
-7 93 -11 97 -19 18 -30 -23 -31 -111 -1 -52 -5 -98 -9 -102 -6 -7 -33 49 -53
110 -5 16 -14 31 -21 33 -13 5 -20 -25 -28 -133 -8 -91 -15 -110 -40 -100 -16
6 -17 15 -11 77 3 39 16 114 27 166 17 81 20 122 17 272 -3 192 -12 231 -48
209 -10 -7 -23 -9 -27 -4 -4 4 -8 69 -8 144 0 118 -2 137 -16 140 -11 2 -20
-8 -28 -29z m453 -1145 c8 -20 8 -219 0 -211 -8 8 -34 209 -28 219 8 13 21 9
28 -8z m-444 -1777 c14 -7 33 -28 42 -47 19 -39 35 -192 24 -234 -7 -27 -69
-66 -103 -66 -21 1 -120 34 -130 44 -4 4 -7 76 -8 161 l0 155 75 0 c41 0 86
-6 100 -13z"/>
<path d="M3291 9571 c-20 -13 -7 -37 29 -56 42 -22 74 -16 78 13 2 13 -2 30
-8 38 -14 15 -77 19 -99 5z"/>
<path d="M4118 9545 c-20 -33 -15 -362 6 -382 13 -13 17 8 22 98 3 52 8 105
10 119 12 57 27 -17 33 -163 4 -96 10 -152 17 -154 16 -5 28 160 14 186 -13
24 -13 88 -1 96 19 11 26 -23 31 -150 5 -127 5 -129 21 -100 9 17 20 63 23
104 9 84 -3 341 -15 341 -10 0 -26 -52 -34 -112 -11 -82 -35 -56 -35 37 0 58
-13 77 -30 45 -15 -28 -28 -25 -43 12 -7 18 -16 28 -19 23z"/>
<path d="M2146 9488 c-3 -24 -8 -91 -12 -149 l-6 -107 26 5 c18 4 26 12 27 27
0 11 1 68 2 126 2 102 2 104 27 110 l25 6 -22 12 c-43 24 -61 16 -67 -30z"/>
<path d="M4833 9513 c-7 -2 -13 -10 -13 -17 0 -15 122 -90 161 -99 15 -4 39
-23 54 -42 22 -29 29 -34 41 -24 11 9 13 26 8 73 -4 34 -8 62 -9 64 -1 1 -13
-2 -26 -8 -20 -9 -32 -7 -72 15 -26 15 -49 31 -52 36 -6 9 -71 11 -92 2z"/>
<path d="M4387 9448 c-9 -18 -26 -45 -38 -60 -18 -22 -22 -43 -26 -140 -4 -88
-2 -117 9 -132 14 -17 16 -17 45 -2 17 8 41 28 53 43 21 26 22 35 17 148 -4
114 -17 175 -35 175 -5 0 -16 -15 -25 -32z m11 -182 c-2 -36 -7 -68 -11 -72
-15 -16 -19 9 -12 82 9 95 29 87 23 -10z"/>
<path d="M4645 9419 c-8 -37 2 -148 16 -169 8 -13 10 -13 20 0 10 15 6 150 -7
183 -10 26 -22 20 -29 -14z"/>
<path d="M4556 9367 c-11 -42 -6 -123 9 -143 13 -17 14 -11 15 68 0 84 -11
121 -24 75z"/>
<path d="M4490 9289 c0 -37 4 -58 10 -54 6 3 10 31 10 61 0 30 -4 54 -10 54
-6 0 -10 -27 -10 -61z"/>
<path d="M5173 9145 c-18 -60 -32 -229 -43 -524 -11 -255 -20 -344 -39 -379
-7 -12 -11 -6 -21 29 -23 87 -26 94 -42 97 -21 4 -32 -29 -23 -69 4 -17 29
-55 55 -84 41 -45 51 -64 65 -126 26 -114 31 -284 11 -368 -18 -72 -14 -93 18
-120 12 -10 17 -7 31 19 14 26 19 29 31 19 11 -9 15 -30 13 -78 -2 -51 1 -66
11 -66 40 0 51 95 20 164 -18 38 -23 42 -45 37 -23 -6 -25 -4 -25 29 0 25 7
43 25 59 13 12 29 42 35 67 16 69 24 327 11 374 -9 35 -8 43 9 67 24 33 25 42
3 79 -16 27 -16 29 3 50 35 39 30 276 -6 254 -5 -3 -10 -27 -10 -53 0 -63 -15
-86 -23 -35 -4 21 -7 57 -7 81 0 23 -4 42 -10 42 -13 0 -13 -215 0 -524 9
-213 9 -245 -6 -295 -17 -55 -17 -56 -25 -26 -5 17 -13 189 -18 382 -5 194
-12 357 -16 363 -3 5 3 92 15 192 23 203 25 417 3 343z"/>
<path d="M1798 9159 c-31 -4 -74 -15 -95 -24 -33 -14 -36 -18 -21 -26 12 -6
36 -7 68 -1 28 5 53 6 56 1 3 -5 2 -42 -2 -82 -5 -53 -3 -76 5 -82 20 -12 25
2 31 88 l5 82 65 5 c49 4 66 9 68 21 5 29 -62 36 -180 18z"/>
<path d="M2516 9024 c-4 -10 -9 -61 -12 -113 -3 -53 -10 -124 -15 -158 -13
-71 -6 -103 22 -103 34 0 42 43 36 214 -6 150 -15 201 -31 160z"/>
<path d="M4695 9007 c-9 -35 -2 -384 8 -393 12 -12 27 16 27 51 0 17 5 37 10
45 7 10 10 -12 10 -72 0 -93 11 -118 29 -66 12 33 13 242 2 292 -7 35 -23 37
-32 4 l-6 -23 -6 25 c-4 14 -11 54 -17 89 -11 73 -16 84 -25 48z"/>
<path d="M5012 9008 c-16 -16 -15 -71 3 -115 12 -28 15 -81 15 -244 0 -115 4
-209 9 -209 21 0 38 349 22 470 -12 88 -27 120 -49 98z"/>
<path d="M4594 8985 c-8 -20 3 -122 15 -144 14 -24 23 21 19 94 -3 58 -21 85
-34 50z"/>
<path d="M4880 8915 c0 -79 10 -107 24 -69 8 20 8 83 0 123 -12 58 -24 31 -24
-54z"/>
<path d="M4354 8946 c-4 -10 -2 -54 5 -99 13 -98 14 -117 2 -136 -20 -31 -38
7 -45 94 -8 99 -22 145 -43 145 -13 0 -14 -19 -8 -142 6 -127 9 -145 27 -160
25 -22 61 -23 78 -2 21 24 28 102 20 203 -8 93 -23 132 -36 97z"/>
<path d="M4519 8944 c-3 -30 3 -216 8 -253 5 -40 7 -43 19 -26 18 24 18 130 0
213 -13 58 -25 88 -27 66z"/>
<path d="M4447 8934 c-4 -4 -7 -65 -7 -136 0 -106 2 -128 15 -128 22 0 28 39
23 150 -3 92 -14 131 -31 114z"/>
<path d="M4950 8877 c0 -18 -9 -49 -20 -70 -25 -47 -46 -217 -33 -267 l10 -35
17 33 c9 17 21 32 26 32 5 0 16 7 24 16 13 13 16 42 16 158 0 97 -4 146 -12
154 -20 20 -28 14 -28 -21z"/>
<path d="M4836 8815 c-11 -29 -7 -340 4 -329 14 14 26 306 13 328 -9 17 -11
17 -17 1z"/>
<path d="M3810 8769 c-30 -11 -77 -26 -104 -34 -87 -25 -81 -38 14 -32 118 8
229 43 205 65 -21 20 -62 20 -115 1z"/>
<path d="M2031 8763 c-18 -15 -23 -39 -36 -157 -9 -77 -18 -150 -21 -162 -7
-27 21 -84 41 -84 11 0 13 18 8 103 -10 174 38 278 133 293 73 11 60 24 -24
24 -61 0 -85 -4 -101 -17z"/>
<path d="M2916 8768 c-18 -58 -14 -88 10 -88 10 0 14 14 14 50 0 45 -15 68
-24 38z"/>
<path d="M3523 8679 c-31 -9 -46 -29 -23 -29 13 0 70 29 70 35 0 6 -8 5 -47
-6z"/>
<path d="M2595 8540 c-4 -6 5 -10 20 -10 15 0 24 4 20 10 -3 6 -12 10 -20 10
-8 0 -17 -4 -20 -10z"/>
<path d="M3763 8460 c-24 -8 -30 -14 -26 -30 5 -18 0 -20 -46 -20 -29 0 -65
-7 -80 -15 -33 -17 -127 -40 -226 -55 -83 -13 -106 -23 -88 -41 13 -13 38 -9
268 41 50 11 151 27 225 35 183 21 189 24 154 70 -11 15 -28 20 -82 22 -37 1
-81 -2 -99 -7z"/>
<path d="M4484 8436 c-9 -24 4 -278 15 -289 26 -26 33 253 7 289 -14 18 -15
18 -22 0z"/>
<path d="M4567 8428 c-4 -12 -7 -72 -7 -133 0 -119 7 -166 21 -143 5 7 9 72 9
143 0 127 -10 183 -23 133z"/>
<path d="M4643 8298 c7 -145 14 -181 31 -175 7 3 11 40 10 113 -1 112 -16 194
-36 194 -8 0 -9 -38 -5 -132z"/>
<path d="M3148 8358 c-50 -18 -32 -31 33 -24 71 8 91 15 83 27 -7 12 -82 10
-116 -3z"/>
<path d="M2759 8343 c-34 -3 -48 -9 -51 -21 -10 -37 1 -42 86 -42 96 0 149 14
144 39 -5 25 -62 33 -179 24z"/>
<path d="M4750 8222 c0 -111 7 -132 41 -132 28 0 29 12 9 81 -10 35 -21 85
-25 112 -11 84 -25 51 -25 -61z"/>
<path d="M4914 8276 c-3 -8 11 -49 32 -93 33 -69 38 -75 42 -50 2 17 -8 53
-27 92 -31 67 -38 75 -47 51z"/>
<path d="M3085 8249 c-9 -28 3 -262 16 -311 20 -78 30 -40 29 105 -1 78 -1
147 -1 153 1 6 19 16 41 23 22 6 40 16 40 21 0 16 -37 30 -79 30 -32 0 -41 -4
-46 -21z"/>
<path d="M4825 8218 c23 -154 44 -210 66 -178 16 24 1 119 -28 172 -32 60 -47
62 -38 6z"/>
<path d="M1860 8200 c-8 -5 -42 -10 -75 -11 -70 -1 -107 -10 -112 -26 -6 -18
58 -26 123 -14 83 14 155 36 157 47 3 13 -75 16 -93 4z"/>
<path d="M2107 8158 c-3 -18 -9 -85 -12 -148 -9 -185 -16 -239 -31 -254 -8 -9
-47 -17 -94 -22 -106 -9 -111 -15 -113 -138 -1 -57 2 -96 8 -97 13 -1 32 61
40 133 l6 56 47 6 c26 4 164 15 307 26 404 31 604 50 678 66 38 8 103 14 145
14 83 1 202 34 210 59 5 16 -14 14 -158 -18 -98 -21 -774 -81 -915 -81 -80 0
-105 13 -105 53 0 12 5 87 10 167 10 139 6 210 -10 210 -4 0 -10 -15 -13 -32z"/>
<path d="M4140 8101 c0 -10 9 -29 19 -42 16 -20 20 -21 26 -8 8 22 -12 69 -30
69 -8 0 -15 -9 -15 -19z"/>
<path d="M4300 8093 c0 -11 51 -73 61 -73 16 0 10 46 -9 63 -18 17 -52 23 -52
10z"/>
<path d="M4454 8040 c-20 -8 -22 -18 -28 -132 -9 -185 12 -331 36 -246 12 44
8 204 -7 253 -25 84 -3 90 156 49 92 -23 139 -25 139 -4 0 14 -173 74 -240 83
-19 3 -45 1 -56 -3z"/>
<path d="M4294 7968 c15 -49 19 -356 6 -420 -7 -35 -14 -106 -15 -158 -2 -52
-4 -105 -4 -118 -3 -69 -48 53 -77 205 -9 48 -19 166 -23 262 -6 147 -10 181
-26 209 -11 17 -23 32 -26 32 -16 0 -23 -50 -24 -175 -1 -71 -5 -158 -10 -191
-6 -48 -3 -74 10 -113 16 -50 29 -63 38 -38 6 20 37 -12 37 -39 0 -18 -6 -24
-21 -24 -37 0 -52 -59 -53 -202 -1 -155 8 -172 57 -113 17 22 41 51 53 64 l21
25 28 -22 c33 -27 52 -28 59 -4 13 44 26 281 28 528 3 255 2 273 -16 293 -26
29 -50 28 -42 -1z m-117 -722 c-21 -31 -37 -31 -37 1 0 40 20 60 37 36 11 -13
10 -21 0 -37z"/>
<path d="M3720 7943 c-52 -14 -114 -30 -138 -37 -59 -16 -57 -30 5 -34 l51 -3
6 -72 c3 -40 5 -90 3 -112 -2 -35 1 -40 20 -43 39 -6 46 35 23 131 -11 45 -20
87 -20 93 0 12 53 23 199 44 84 12 108 25 90 46 -18 22 -132 16 -239 -13z"/>
<path d="M4237 7944 c-11 -12 -8 -320 4 -351 21 -56 31 1 27 165 -3 144 -13
204 -31 186z"/>
<path d="M4522 7873 c-4 -10 -7 -58 -7 -108 0 -134 20 -183 44 -114 29 83 -6
296 -37 222z"/>
<path d="M4614 7814 c-7 -41 3 -180 15 -202 6 -11 12 -5 21 23 13 38 9 161 -5
198 -11 27 -24 20 -31 -19z"/>
<path d="M4716 7798 c-18 -68 3 -243 26 -220 14 14 22 147 11 196 -10 46 -28
57 -37 24z"/>
<path d="M4826 7709 c-9 -45 -7 -78 5 -123 17 -60 30 -23 27 71 -3 80 -20 109
-32 52z"/>
<path d="M4952 7603 c2 -44 7 -58 18 -58 19 0 26 65 10 95 -20 37 -31 22 -28
-37z"/>
<path d="M3760 7555 c-30 -7 -75 -13 -100 -14 -65 -1 -290 -54 -290 -68 0 -22
19 -24 57 -7 27 12 85 19 203 24 91 4 194 13 230 20 69 12 115 34 105 50 -8
14 -138 10 -205 -5z"/>
<path d="M4404 7486 c-4 -9 -3 -47 2 -84 14 -109 8 -161 -25 -245 -29 -72 -31
-87 -31 -198 0 -118 0 -120 -25 -129 -56 -21 -12 -109 64 -125 18 -4 48 -16
66 -26 37 -22 63 -17 71 15 8 33 -1 678 -10 698 -21 47 -26 -18 -26 -323 l0
-329 -26 -12 c-23 -11 -28 -9 -41 7 -12 17 -14 48 -10 180 3 88 11 176 17 195
17 55 24 228 12 304 -12 74 -27 102 -38 72z"/>
<path d="M4975 7428 c-3 -18 -9 -94 -13 -169 -6 -104 -12 -143 -26 -163 -25
-40 -41 -27 -44 35 -6 144 -21 278 -32 299 -22 41 -29 2 -18 -95 6 -50 8 -140
5 -202 l-5 -112 30 -10 c80 -28 128 -4 149 74 13 44 6 290 -8 339 -13 42 -31
43 -38 4z"/>
<path d="M4574 7425 c-7 -27 0 -312 13 -564 6 -117 5 -127 -17 -166 -17 -32
-21 -50 -16 -77 7 -41 41 -77 57 -61 6 6 10 133 10 354 0 273 -3 363 -16 439
-9 52 -18 97 -20 99 -2 2 -7 -9 -11 -24z"/>
<path d="M4669 7423 c-1 -5 -1 -56 1 -115 2 -82 -2 -119 -15 -157 -10 -27 -15
-56 -12 -65 9 -22 44 -20 57 3 13 25 13 281 0 315 -9 24 -28 35 -31 19z"/>
<path d="M5251 7396 c-20 -24 -4 -166 19 -166 21 0 27 137 7 164 -12 16 -14
16 -26 2z"/>
<path d="M2730 7393 c-146 -9 -387 -32 -402 -38 -20 -8 -25 -55 -5 -55 57 0
252 23 296 35 31 8 81 15 111 17 l55 3 3 -63 c3 -53 6 -63 20 -60 31 6 81 119
65 144 -10 14 -72 22 -143 17z"/>
<path d="M1832 7306 c-9 -21 -18 -24 -87 -28 -74 -5 -115 -21 -84 -33 8 -3
102 -6 209 -8 l195 -2 5 -129 c3 -89 9 -131 17 -133 20 -7 28 44 28 175 0 156
-1 157 -125 147 -78 -6 -87 -4 -104 14 -25 27 -40 26 -54 -3z"/>
<path d="M5115 7197 c7 -141 21 -287 30 -295 15 -15 20 22 20 141 -1 138 -15
231 -41 263 -14 17 -15 7 -9 -109z"/>
<path d="M4778 7284 c-13 -21 -21 -170 -10 -190 10 -18 11 -17 21 9 18 45 7
210 -11 181z"/>
<path d="M5267 7134 c-10 -11 -9 -69 3 -98 21 -57 47 -11 33 58 -8 38 -22 54
-36 40z"/>
<path d="M3015 7080 c-109 -7 -425 -61 -476 -81 -15 -6 -39 -24 -55 -40 -24
-25 -35 -29 -78 -29 l-51 1 33 29 32 30 -36 0 c-26 0 -46 -8 -69 -29 l-33 -28
-293 -6 c-263 -5 -414 -16 -441 -33 -5 -3 -4 -12 3 -20 8 -10 39 -14 118 -14
129 0 147 -5 159 -39 5 -14 33 -52 61 -84 28 -32 62 -82 76 -111 25 -52 87
-124 70 -81 -14 39 -10 50 23 60 17 5 32 13 32 18 0 5 -15 35 -34 66 -45 74
-48 93 -16 101 29 8 28 25 -2 57 -11 12 -17 26 -13 32 9 15 98 14 113 -1 6 -6
30 -21 54 -33 67 -34 104 -135 48 -135 -10 0 -22 -5 -26 -11 -5 -9 18 -10 87
-5 52 4 153 11 224 16 190 13 409 38 495 56 41 8 110 19 152 23 43 5 85 14 93
21 8 7 15 28 15 47 0 35 27 93 43 93 5 0 7 -6 4 -13 -3 -7 -13 -61 -22 -120
l-18 -107 -23 15 c-21 13 -31 14 -86 1 -35 -8 -90 -19 -123 -26 -33 -6 -79
-16 -103 -21 -23 -4 -122 -18 -220 -29 -97 -11 -253 -31 -347 -45 -93 -14
-189 -25 -212 -25 -80 0 -86 -11 -52 -91 24 -54 28 -56 64 -33 28 18 49 10 42
-16 -8 -29 12 -50 46 -50 18 0 88 14 157 30 69 16 132 30 141 30 8 0 35 13 60
29 43 28 47 29 250 38 241 11 273 21 298 89 18 46 30 57 49 41 23 -19 9 -87
-29 -139 l-34 -46 -125 1 c-128 1 -301 -22 -480 -63 -47 -11 -98 -20 -112 -20
-15 0 -38 -4 -52 -10 -14 -5 -65 -14 -113 -20 -92 -12 -131 -25 -144 -50 -5
-8 -27 -59 -49 -112 -70 -167 -66 -262 16 -398 43 -72 45 -78 42 -141 -3 -55
-11 -80 -47 -150 -37 -71 -45 -95 -49 -156 -8 -124 36 -221 117 -263 35 -17
41 -25 47 -66 7 -51 -1 -155 -15 -182 -14 -28 -22 -232 -9 -232 7 0 26 15 43
34 39 42 85 56 231 66 61 4 116 10 121 13 5 3 68 13 139 22 144 17 265 47 312
75 21 13 33 29 37 52 3 18 -1 137 -8 263 -14 225 -13 255 3 255 13 0 20 -28
30 -121 8 -69 14 -87 37 -111 37 -39 93 -39 154 0 24 16 56 36 72 45 31 20 36
57 11 78 -13 11 -23 10 -61 -4 -99 -37 -124 45 -48 163 45 69 60 140 60 275
-1 90 -5 118 -22 158 -13 27 -29 47 -37 47 -18 0 -21 16 -5 26 20 12 2 83 -35
144 -20 32 -36 68 -36 80 0 41 22 109 41 126 24 21 26 90 3 122 -19 27 -12 52
14 52 24 0 42 19 42 46 0 12 12 66 26 120 29 112 54 280 54 369 l0 60 -60 18
c-62 18 -108 19 -295 7z m250 -50 c16 -6 25 -16 22 -23 -3 -6 -15 -37 -28 -67
-33 -84 -33 -84 -75 -97 -182 -58 -253 -74 -274 -63 -29 16 -12 35 46 49 l45
12 -7 47 c-3 26 -12 61 -19 79 -15 36 -7 48 42 63 40 12 217 12 248 0z m-400
-37 l47 -6 -4 -74 c-3 -41 -10 -79 -17 -86 -14 -14 -115 -39 -159 -39 -32 1
-122 45 -122 61 0 5 -12 25 -26 46 -14 21 -21 42 -17 46 5 5 42 15 83 24 41 8
91 19 110 24 46 12 50 12 105 4z m-875 -103 c0 -17 -40 -31 -77 -28 -35 3 -36
4 -19 21 19 18 96 24 96 7z m472 -10 c41 -12 98 -55 98 -74 0 -19 -65 -36
-156 -43 -79 -6 -81 -5 -103 23 -30 38 -24 65 19 86 40 20 88 23 142 8z m-495
-102 c11 -13 26 -33 32 -45 10 -19 9 -23 -3 -23 -26 0 -80 55 -73 73 9 23 20
21 44 -5z m1163 -177 c0 -16 -34 -23 -165 -31 -277 -19 -402 -35 -440 -58 -5
-3 -20 -7 -33 -8 -17 -2 -22 2 -20 14 7 38 86 56 343 76 210 16 315 19 315 7z
m-741 -70 c12 -8 9 -11 -12 -16 -31 -8 -61 0 -52 15 8 12 45 13 64 1z m591
-152 c121 -19 152 -53 81 -88 -22 -12 -47 -31 -55 -43 -14 -20 -16 -20 -16 -4
0 24 -60 105 -78 106 -7 0 -70 -12 -140 -26 -91 -19 -160 -27 -244 -28 -121
-1 -144 6 -132 38 6 15 17 17 93 11 66 -6 99 -3 141 9 116 34 242 43 350 25z
m-90 -108 c0 -12 -69 -56 -110 -69 -50 -16 -162 -20 -167 -6 -5 16 17 23 121
40 48 8 98 21 109 29 24 17 47 20 47 6z m-546 -43 c3 -13 6 -216 7 -453 0
-402 5 -496 22 -452 3 9 13 17 22 17 27 0 36 49 46 265 14 294 24 433 32 441
4 4 7 -85 7 -197 0 -112 4 -209 8 -215 4 -6 18 -17 31 -24 40 -21 51 7 51 124
0 91 18 281 26 273 2 -2 1 -107 -3 -234 l-6 -231 -29 -16 c-16 -10 -36 -29
-45 -43 -16 -25 -16 -26 6 -44 13 -11 36 -19 53 -19 37 0 79 -40 71 -69 -7
-26 -19 -35 -65 -50 -21 -7 -41 -17 -44 -23 -8 -13 16 -29 36 -23 8 2 37 7 63
11 44 6 49 5 45 -12 -5 -27 -43 -42 -127 -49 -101 -8 -121 -13 -121 -29 0 -19
31 -43 67 -51 44 -9 138 10 201 42 39 20 55 24 64 15 8 -8 8 -13 -3 -16 -59
-21 -70 -28 -75 -41 -4 -9 -4 -19 -1 -22 4 -3 60 7 126 22 148 35 151 33 151
-66 0 -38 -4 -69 -9 -69 -5 0 -14 21 -20 46 l-12 47 -77 -7 c-42 -4 -88 -13
-102 -19 -30 -14 -37 -48 -15 -67 13 -11 18 -10 33 4 26 22 37 20 51 -10 9
-21 14 -24 26 -14 8 7 15 19 15 26 0 8 5 14 10 14 6 0 10 -12 10 -27 0 -56 62
-85 80 -37 12 31 22 26 50 -27 25 -49 21 -69 -16 -69 -14 0 -58 -13 -97 -29
-47 -18 -100 -30 -152 -35 -44 -3 -126 -14 -183 -23 -78 -12 -106 -13 -114 -5
-21 21 4 31 117 47 60 8 114 20 119 25 12 12 9 13 -119 14 l-100 1 -3 30 c-2
17 3 48 10 70 15 46 50 63 133 65 46 0 86 13 75 24 -3 2 -51 9 -107 14 -56 6
-109 14 -117 19 -8 4 -29 30 -48 58 -24 36 -48 57 -87 77 -64 31 -84 62 -85
134 0 44 4 57 31 87 56 63 69 221 21 251 -22 14 -31 4 -37 -45 -8 -56 -25 -49
-32 13 -3 29 -14 72 -23 96 -10 24 -17 45 -14 47 2 3 19 1 36 -4 41 -12 64 8
60 53 -2 24 -11 34 -37 47 -18 8 -42 27 -52 40 -19 24 -20 24 -34 5 -8 -11
-15 -28 -15 -38 0 -10 -5 -18 -11 -18 -8 0 -10 13 -6 38 2 22 -1 53 -9 71 -8
19 -14 40 -14 48 0 23 23 10 39 -21 12 -26 14 -27 29 -12 17 17 38 83 52 161
10 60 19 85 31 85 13 0 11 -31 -6 -97 -23 -86 -20 -168 6 -194 26 -26 30 -21
63 60 32 78 33 111 5 135 -16 14 -20 25 -15 48 11 55 39 75 50 36z m757 -24
c15 -19 27 -255 28 -570 l1 -191 -47 -6 c-59 -6 -70 -21 -78 -105 -9 -91 -13
-103 -28 -77 -18 30 -13 417 6 524 26 139 39 126 48 -47 11 -202 11 -200 16
-173 3 13 13 26 24 28 24 7 25 51 3 117 -14 40 -14 52 -3 72 16 32 -1 125 -31
166 -22 30 -25 70 -9 117 18 50 29 36 29 -35 0 -48 3 -65 13 -62 7 3 13 28 15
64 2 51 -2 69 -27 117 -27 52 -28 58 -13 67 24 14 38 12 53 -6z m-921 -43 c0
-18 -18 -41 -32 -41 -13 0 -9 58 5 63 17 6 27 -1 27 -22z m847 -53 c-3 -7 -5
-2 -5 12 0 14 2 19 5 13 2 -7 2 -19 0 -25z m183 -94 c6 -14 10 -33 10 -42 -1
-25 -40 24 -40 49 0 27 19 23 30 -7z m18 -221 c18 -54 32 -115 32 -135 0 -39
-57 -198 -71 -198 -29 0 -13 244 17 267 14 10 13 18 -5 78 -23 74 -25 85 -13
85 4 0 22 -44 40 -97z m-511 -160 c-2 -32 -3 -8 -3 52 0 61 1 87 3 58 2 -29 2
-78 0 -110z m116 65 c21 -16 22 -23 23 -221 0 -195 1 -205 22 -232 20 -25 21
-30 8 -43 -13 -13 -18 -13 -40 2 -14 9 -26 23 -26 30 0 8 -11 28 -25 44 -30
36 -32 52 -5 52 33 0 42 43 38 171 -5 115 -19 174 -33 137 -4 -10 -11 -18 -16
-18 -13 0 -11 56 3 102 11 38 12 39 20 17 5 -13 19 -32 31 -41z m-660 -321
c-6 -87 -11 -107 -28 -107 -32 0 -31 109 1 158 23 35 33 18 27 -51z m557 -22
c0 -8 -7 -15 -15 -15 -16 0 -20 12 -8 23 11 12 23 8 23 -8z m-542 -163 c2 -12
-1 -22 -7 -22 -15 0 -42 31 -35 41 10 17 39 5 42 -19z m862 -89 c0 -23 -5 -33
-15 -33 -11 0 -15 12 -15 52 0 48 1 50 15 32 8 -10 15 -34 15 -51z m-632 -160
c5 -50 -16 -111 -44 -129 -13 -9 -28 -14 -32 -10 -3 4 -7 36 -7 71 0 48 4 68
19 84 29 32 60 24 64 -16z m-102 -96 c-5 -65 -17 -97 -37 -97 -18 0 -6 140 17
200 12 32 26 -36 20 -103z"/>
<path d="M2370 5274 c0 -10 7 -14 22 -12 32 5 35 28 4 28 -17 0 -26 -5 -26
-16z"/>
<path d="M2515 4910 c-4 -6 7 -10 24 -10 17 0 31 5 31 10 0 6 -11 10 -24 10
-14 0 -28 -4 -31 -10z"/>
<path d="M4203 6998 c7 -91 0 -127 -21 -114 -6 4 -14 22 -18 42 -8 43 -28 39
-32 -7 -6 -60 8 -115 40 -157 39 -51 52 -44 69 36 15 72 8 254 -10 276 -28 34
-34 17 -28 -76z"/>
<path d="M5196 7048 c-3 -13 -6 -91 -6 -175 0 -142 -1 -153 -20 -163 -24 -13
-28 -75 -6 -105 9 -13 15 -58 18 -127 3 -107 16 -144 38 -122 15 15 9 706 -6
711 -6 2 -14 -6 -18 -19z"/>
<path d="M4670 6840 c0 -111 -4 -160 -15 -187 -26 -62 -18 -133 15 -133 30 0
35 18 40 145 5 113 6 120 26 123 25 4 41 61 25 89 -8 16 -11 14 -22 -10 -19
-43 -34 -26 -34 39 0 59 -8 84 -26 84 -5 0 -9 -63 -9 -150z"/>
<path d="M5287 6913 c-13 -20 -19 -140 -9 -175 7 -26 6 -54 -4 -103 -11 -51
-12 -77 -3 -107 12 -45 17 -44 37 10 23 61 25 98 12 231 -12 123 -21 163 -33
144z"/>
<path d="M4835 6890 c-3 -5 -7 -60 -9 -123 -3 -94 -7 -122 -27 -163 l-24 -49
-3 75 c-5 144 -30 126 -31 -22 -1 -87 -1 -88 29 -103 62 -32 72 -16 95 161 16
117 19 193 9 218 -7 18 -30 21 -39 6z"/>
<path d="M4996 6824 c-3 -26 -6 -114 -6 -196 0 -165 3 -172 59 -144 53 28 61
52 71 203 5 76 9 139 10 141 0 2 5 0 10 -3 6 -3 10 3 10 13 0 21 -37 36 -63
26 -23 -8 -27 -37 -27 -181 0 -82 -4 -133 -10 -133 -5 0 -10 15 -11 33 0 17
-4 85 -8 150 -9 129 -24 169 -35 91z"/>
<path d="M4937 6770 c-3 -14 -8 -55 -9 -91 -3 -49 -9 -72 -26 -94 -26 -33 -31
-119 -8 -151 14 -18 16 -18 32 -2 14 14 18 42 22 170 5 158 1 216 -11 168z"/>
<path d="M4138 6694 c-27 -41 -39 -664 -13 -719 l13 -30 1 37 c1 46 10 68 26
68 16 0 25 -75 25 -217 0 -62 4 -113 9 -113 4 0 11 41 15 92 8 119 6 806 -3
838 -15 53 -22 -6 -27 -227 -6 -260 -12 -339 -25 -326 -5 5 -10 144 -11 308
-2 165 -6 295 -10 289z"/>
<path d="M4276 6520 c-6 -50 -19 -441 -17 -505 3 -92 5 -115 13 -115 8 0 15
40 21 126 5 67 23 112 38 97 6 -6 14 -39 19 -75 12 -83 19 -100 38 -96 22 4
29 40 41 204 13 169 14 324 2 343 -12 19 -19 -19 -26 -154 -3 -60 -8 -125 -11
-143 -4 -28 -7 -31 -25 -22 -11 6 -25 8 -31 4 -12 -8 -10 4 16 71 15 41 23
256 10 289 -14 37 -22 9 -26 -99 -5 -108 -10 -136 -23 -123 -3 3 -8 52 -12
109 -7 119 -18 157 -27 89z"/>
<path d="M1805 6519 c-102 -10 -144 -24 -127 -41 8 -8 42 -8 128 1 125 14 169
25 159 41 -7 11 -31 11 -160 -1z"/>
<path d="M2073 6422 c5 -58 20 -83 38 -65 15 15 3 62 -22 93 l-20 25 4 -53z"/>
<path d="M4487 6378 c-12 -144 -8 -416 5 -424 15 -9 45 28 59 74 16 52 23 290
7 244 -19 -57 -33 -31 -39 79 -7 117 -6 109 -18 109 -4 0 -11 -37 -14 -82z"/>
<path d="M5265 6341 c-3 -11 -10 -105 -14 -208 -5 -103 -12 -196 -16 -205 -6
-15 -19 -18 -69 -18 -33 0 -66 4 -73 8 -26 16 -33 69 -33 243 0 153 -2 181
-15 186 -9 3 -19 2 -23 -2 -4 -3 -8 -71 -10 -151 -3 -116 -6 -144 -18 -144
-10 0 -14 15 -14 58 0 93 -12 212 -21 212 -5 0 -9 -58 -9 -130 0 -71 -4 -130
-8 -130 -4 0 -16 13 -25 29 -15 26 -16 45 -11 139 5 75 3 111 -4 116 -17 10
-29 -22 -41 -109 -6 -43 -13 -81 -15 -83 -12 -11 -26 13 -26 42 0 18 -3 62 -7
97 -8 76 -21 55 -22 -34 -1 -37 -8 -72 -21 -97 -11 -22 -20 -47 -20 -57 0 -15
-2 -16 -10 -3 -5 8 -10 61 -10 118 0 61 -4 102 -10 102 -5 0 -10 -18 -10 -39
0 -22 -5 -43 -10 -46 -13 -8 -40 54 -40 90 0 36 -18 31 -24 -7 -12 -79 -17
-182 -10 -238 l7 -61 21 21 c27 24 36 25 36 4 0 -9 8 -28 18 -42 10 -15 21
-35 25 -44 3 -9 16 -18 29 -20 17 -2 26 -14 36 -45 8 -24 18 -43 24 -43 6 0 7
7 2 18 -12 27 -15 96 -5 111 5 8 16 11 25 8 14 -6 16 -40 17 -294 0 -158 4
-297 8 -307 18 -47 26 32 31 321 4 217 8 305 17 314 27 27 35 -40 29 -271 -3
-124 -8 -247 -12 -273 -12 -93 16 -176 42 -119 4 9 9 132 11 272 4 264 7 310
24 293 13 -13 27 -141 34 -318 4 -92 14 -181 25 -230 11 -44 20 -96 20 -115 1
-19 1 -204 0 -410 0 -325 11 -574 26 -589 15 -16 19 46 20 332 l0 322 26 45
c35 60 43 128 25 188 -9 26 -18 103 -21 171 -3 68 -8 126 -11 129 -3 3 -17 -1
-31 -8 -22 -12 -27 -12 -35 0 -14 21 -7 386 8 401 15 15 23 -11 37 -125 9 -79
14 -92 33 -101 19 -8 23 -18 25 -80 3 -65 5 -71 31 -83 24 -12 27 -18 27 -62
0 -27 5 -72 11 -100 9 -43 8 -63 -6 -113 -12 -43 -16 -87 -14 -151 4 -88 3
-91 -18 -94 -30 -4 -29 -22 3 -47 l26 -21 -25 -64 c-27 -70 -42 -179 -41 -301
0 -58 6 -86 23 -119 36 -69 56 -295 27 -306 -7 -3 -58 4 -114 16 -55 11 -117
20 -137 20 -29 0 -36 3 -33 18 3 15 17 17 103 20 115 3 145 17 59 27 -77 10
-109 27 -124 67 -7 21 -15 152 -21 358 -9 342 -22 552 -34 584 -8 18 -9 18
-21 1 -10 -14 -12 -51 -7 -160 4 -106 3 -144 -6 -149 -7 -5 -15 -5 -18 -2 -3
3 -8 83 -12 178 -6 170 -17 231 -32 178 -4 -14 -7 -142 -8 -286 -1 -254 -7
-354 -20 -354 -4 0 -12 54 -17 120 -9 109 -22 155 -40 137 -4 -4 -8 -27 -8
-52 -1 -25 -4 -45 -8 -45 -11 0 -28 61 -28 101 0 21 -4 41 -10 44 -7 4 -10
-53 -10 -164 0 -185 1 -182 -55 -161 -28 11 -26 30 4 30 16 0 17 12 13 143 -5
167 -11 206 -35 221 -42 26 -65 -82 -53 -254 7 -117 26 -183 60 -215 33 -30
33 -50 1 -71 -32 -21 -63 -10 -70 24 -14 68 -26 100 -39 105 -21 8 -24 -10
-14 -93 4 -41 6 -86 3 -99 -5 -19 -3 -22 10 -17 72 27 85 18 85 -61 0 -73 -17
-83 -138 -83 l-94 0 3 262 c4 244 3 263 -13 266 -33 6 -38 -37 -28 -235 14
-285 16 -263 -24 -263 l-34 0 -4 228 c-2 128 -7 233 -13 242 -16 24 -23 -75
-17 -246 6 -173 -1 -227 -26 -222 -22 4 -29 76 -31 318 -1 227 -9 320 -27 320
-7 0 -14 -8 -16 -17 -2 -10 -2 -153 0 -319 3 -166 1 -319 -3 -340 -7 -38 -8
-38 -17 -14 -6 14 -13 145 -17 292 -4 147 -10 271 -14 275 -26 25 -32 -99 -28
-563 l1 -61 -184 -6 c-101 -4 -196 -11 -211 -17 -14 -5 -96 -10 -181 -10
l-154 0 0 -114 c0 -103 8 -143 24 -117 4 5 9 51 13 102 l6 92 128 -7 c111 -6
134 -4 186 13 92 31 118 33 211 20 66 -9 102 -9 151 -1 61 11 139 3 166 -16 6
-4 8 -55 5 -137 l-5 -130 -90 -7 c-49 -5 -130 -15 -178 -23 -49 -8 -157 -20
-240 -26 -138 -9 -300 -24 -537 -49 -47 -6 -134 -10 -195 -10 -172 -1 -789
-60 -822 -79 -36 -20 79 -24 225 -8 86 9 154 12 172 7 16 -5 47 -4 72 2 24 5
140 11 258 13 158 2 236 8 295 20 111 24 165 29 178 16 15 -15 42 -14 56 3 20
24 104 36 307 46 105 5 229 14 275 19 46 6 122 15 168 21 56 7 96 17 120 32
35 22 45 23 268 23 183 0 229 3 221 12 -11 13 -4 18 37 26 32 6 -78 26 -235
42 -80 8 -167 21 -195 27 -27 7 -54 12 -59 13 -13 0 -20 25 -7 25 5 0 12 -4
15 -9 8 -13 76 7 101 29 35 31 243 35 273 6 14 -15 -26 -26 -93 -26 -99 0
-114 -16 -23 -23 296 -25 513 -16 552 23 19 19 19 19 -8 30 -15 5 -60 10 -100
10 -48 0 -79 5 -92 15 -16 13 -17 16 -4 25 20 13 185 13 232 0 54 -15 68 -34
68 -90 0 -50 17 -80 46 -80 17 0 17 1 18 107 1 84 8 105 28 85 23 -23 38 -231
21 -312 l-6 -33 -274 8 c-252 6 -276 5 -293 -10 -11 -10 -39 -21 -62 -26 -45
-9 -138 -1 -138 11 0 4 19 14 42 23 31 13 39 20 31 28 -16 16 -73 3 -113 -26
-30 -22 -35 -23 -61 -10 -15 8 -50 15 -77 15 l-49 0 -7 -77 c-12 -148 -8 -262
13 -307 10 -23 24 -53 30 -68 10 -26 15 -28 63 -28 54 0 138 30 138 50 0 6
-26 10 -62 10 -76 0 -108 8 -108 26 0 7 18 18 40 24 22 6 40 13 40 15 0 3 -15
11 -34 19 -36 15 -74 61 -61 74 3 4 132 7 285 7 197 0 282 3 290 11 17 17 -17
22 -200 29 -250 10 -409 33 -395 55 4 6 39 11 78 11 40 1 86 4 102 8 24 5 14
8 -44 14 -77 6 -116 26 -95 47 7 7 91 12 220 14 146 2 219 7 244 16 28 11 72
11 266 1 127 -7 253 -10 280 -7 52 7 67 2 77 -26 4 -11 17 -18 30 -18 14 0 30
-7 37 -15 10 -12 8 -16 -15 -25 -14 -5 -44 -13 -66 -16 -48 -8 -62 -24 -21
-24 16 0 50 -3 75 -6 l46 -7 3 -137 c3 -127 5 -140 26 -162 12 -14 22 -27 22
-30 0 -7 -174 -18 -198 -11 -13 3 -18 11 -15 19 3 9 -2 14 -16 14 -12 0 -21
-6 -21 -15 0 -8 -9 -15 -20 -15 -11 0 -20 6 -20 14 0 11 -27 13 -152 9 -140
-5 -332 8 -347 22 -14 15 32 25 119 25 109 1 173 11 172 25 -1 6 -16 12 -33
15 -41 6 -44 18 -14 55 l25 30 150 3 c93 3 150 8 150 14 0 6 -36 9 -97 7 -97
-4 -98 -4 -110 22 -22 45 -37 52 -99 44 -53 -6 -55 -7 -39 -25 16 -18 15 -19
-32 -25 -66 -9 -93 -21 -93 -44 0 -10 -9 -21 -21 -24 -18 -5 -19 -8 -7 -26 7
-11 9 -24 4 -28 -4 -4 -71 -10 -149 -13 -133 -5 -140 -6 -112 -20 50 -24 86
-51 80 -61 -4 -5 -36 -9 -73 -9 -37 0 -115 -5 -175 -12 -107 -11 -107 -11
-133 13 -25 23 -31 24 -174 24 -82 0 -152 -3 -156 -7 -16 -16 11 -23 99 -26
118 -3 137 -8 137 -31 0 -17 -11 -19 -95 -23 -54 -2 -100 -9 -107 -16 -19 -19
15 -25 114 -20 69 4 96 10 117 26 l28 20 22 -21 c17 -17 36 -22 96 -25 61 -3
77 -8 86 -23 8 -17 21 -19 97 -18 48 1 97 4 110 7 42 12 23 27 -40 32 -72 6
-88 13 -88 41 0 15 7 19 38 19 20 0 275 -5 565 -10 291 -6 540 -7 553 -4 36 9
29 20 -22 40 -39 15 -50 25 -66 61 -35 79 -43 292 -13 365 3 9 2 26 -5 37 -19
36 -69 54 -167 59 l-93 5 0 116 c-1 198 -22 290 -70 301 -22 5 -26 13 -34 75
-12 86 -12 166 -1 1060 8 683 2 1105 -15 1105 -5 0 -11 -9 -15 -19z m-20 -521
c6 -10 -66 -60 -77 -53 -12 7 -9 38 4 51 14 14 64 16 73 2z m26 -115 c14 -67
7 -215 -11 -215 -5 0 -11 28 -15 63 -4 34 -13 79 -20 101 -9 26 -11 46 -4 63
12 33 42 26 50 -12z m-337 -1000 c0 -76 -17 -105 -34 -59 -11 27 -6 116 7 137
13 21 27 -18 27 -78z m-168 -130 c-4 -14 -13 -25 -21 -25 -16 0 -21 63 -8 110
6 23 8 21 21 -18 8 -24 11 -54 8 -67z m175 -39 c-6 -14 -15 -26 -21 -26 -14 0
-12 12 6 38 20 29 28 23 15 -12z m-58 -86 c6 -24 -2 -60 -14 -60 -15 0 -21 20
-14 50 8 35 20 39 28 10z m-73 -79 c12 -66 13 -158 1 -165 -13 -9 -20 16 -31
114 -14 128 8 166 30 51z m-90 -3 c6 -18 14 -63 17 -100 5 -57 3 -68 -9 -68
-22 0 -29 23 -35 118 -6 87 5 109 27 50z m162 -122 c1 -49 -4 -62 -21 -51 -12
7 -15 97 -4 109 13 13 25 -13 25 -58z m-324 -92 c45 -13 0 -24 -100 -24 -102
0 -193 14 -204 32 -8 12 261 5 304 -8z m179 -40 c-9 -9 -28 6 -21 18 4 6 10 6
17 -1 6 -6 8 -13 4 -17z m-131 -40 c84 -6 111 -14 100 -33 -15 -23 -426 1
-426 25 0 7 8 14 18 17 18 4 176 0 308 -9z m-71 -224 c48 -17 49 -18 22 -25
-30 -8 -112 2 -139 16 -58 31 36 39 117 9z"/>
<path d="M5125 6329 c-11 -17 -20 -288 -11 -323 16 -65 54 3 63 112 8 113 -26
254 -52 211z"/>
<path d="M3321 6250 c-64 -14 -110 -48 -83 -63 4 -2 53 1 108 8 179 22 188 16
179 -120 -6 -92 -5 -102 13 -118 28 -25 33 -13 42 107 5 56 9 106 10 111 5 25
-3 36 -47 55 -55 24 -157 33 -222 20z"/>
<path d="M1615 6033 c-34 -5 -56 -28 -48 -49 6 -16 34 -19 49 -5 5 5 83 11
174 14 158 4 200 10 200 27 0 4 -17 10 -37 14 -41 6 -288 6 -338 -1z"/>
<path d="M1666 5918 c-3 -7 -7 -59 -10 -115 -4 -88 -3 -103 10 -103 36 0 59
146 32 205 -12 27 -26 33 -32 13z"/>
<path d="M1377 5906 c-13 -34 -26 -316 -25 -556 0 -140 -5 -334 -11 -430 -7
-96 -9 -215 -6 -265 5 -64 3 -112 -8 -165 -19 -91 -41 -428 -32 -476 4 -23 2
-41 -6 -51 -15 -17 -108 -65 -163 -83 l-38 -12 6 -52 c3 -28 8 -104 12 -170
l7 -119 -74 7 c-91 8 -147 -5 -176 -39 -24 -27 -30 -80 -14 -120 6 -16 10 -9
20 32 7 29 18 56 24 61 15 12 320 42 427 42 72 0 81 2 78 18 -3 15 -16 17 -98
18 -129 1 -127 0 -139 35 -13 39 -14 208 -1 229 7 12 34 15 127 16 65 1 143 7
173 13 30 7 114 16 185 21 72 6 173 17 225 25 52 8 167 19 255 25 166 11 222
20 217 36 -6 20 -420 -9 -592 -42 -41 -7 -100 -14 -130 -14 -30 0 -86 -7 -125
-15 -82 -18 -205 -20 -205 -4 0 23 21 47 52 60 18 7 44 21 58 30 19 13 57 18
165 23 77 4 214 11 305 16 91 5 233 9 315 10 88 0 185 6 235 15 47 9 180 26
295 40 206 24 368 49 386 61 17 10 -2 24 -32 24 -16 0 -57 -8 -90 -17 -58 -16
-63 -16 -92 0 -26 15 -32 16 -46 3 -46 -41 -320 -76 -681 -86 -162 -4 -364
-16 -448 -25 -152 -17 -153 -17 -192 4 -51 27 -80 27 -114 0 -46 -36 -51 -19
-50 174 1 95 6 199 13 232 24 125 47 1453 25 1475 -8 8 -13 7 -17 -4z"/>
<path d="M3815 5900 c-66 -9 -138 -22 -160 -29 -22 -6 -56 -11 -75 -11 -19 0
-42 -5 -50 -10 -13 -9 -12 -12 4 -25 25 -19 68 -19 129 0 27 8 103 19 170 24
98 8 124 14 140 30 23 22 15 41 -16 40 -12 -1 -76 -9 -142 -19z"/>
<path d="M4730 5838 c0 -64 14 -94 23 -50 7 36 -2 102 -14 102 -5 0 -9 -24 -9
-52z"/>
<path d="M4115 5840 c-5 -24 -13 -31 -41 -36 -26 -5 -34 -11 -35 -28 -1 -11 0
-190 1 -397 2 -403 0 -419 -46 -419 -54 0 -169 -32 -186 -52 -20 -22 -26 -128
-8 -128 5 0 20 21 32 48 22 45 27 48 108 79 47 18 91 32 98 33 7 0 12 -12 12
-30 0 -33 13 -39 26 -12 5 9 10 149 10 310 2 279 7 332 30 309 14 -14 24 -108
29 -287 3 -102 8 -205 11 -230 11 -89 22 -13 27 195 5 196 17 285 38 285 4 0
8 -123 9 -272 1 -273 5 -344 21 -354 16 -10 19 19 27 270 5 185 10 250 20 254
9 3 12 -14 12 -60 0 -34 4 -70 9 -77 15 -24 25 32 18 99 -6 50 -4 60 14 76 17
16 22 16 29 4 16 -26 23 -100 17 -182 -4 -64 -10 -85 -27 -103 -22 -24 -22
-24 -7 -131 16 -109 28 -137 48 -117 20 20 28 158 28 478 1 297 -7 394 -30
380 -5 -4 -9 -45 -10 -93 l-1 -87 -18 104 c-19 107 -40 155 -40 91 0 -44 -14
-70 -24 -45 -3 9 -6 32 -6 50 0 34 -13 54 -24 36 -3 -5 -10 -41 -16 -81 -6
-40 -13 -77 -16 -82 -4 -5 -19 2 -34 17 l-27 26 -14 -57 c-16 -65 -30 -77 -47
-39 -7 15 -20 25 -33 25 -20 0 -21 3 -15 53 3 28 6 68 6 88 0 28 5 38 25 47
19 9 25 19 25 42 0 39 -16 39 -25 0z m225 -237 c0 -10 -4 -24 -9 -32 -12 -19
-24 3 -16 29 8 25 25 26 25 3z"/>
<path d="M3383 5853 c-13 -2 -23 -11 -23 -19 0 -17 -1 -17 38 -3 18 6 29 15
26 20 -3 5 -8 8 -12 8 -4 -1 -17 -4 -29 -6z"/>
<path d="M4537 5853 c-10 -10 -8 -68 5 -161 6 -45 8 -85 4 -89 -13 -13 -27 14
-37 75 -6 33 -18 69 -26 79 -13 16 -13 7 -6 -82 10 -131 8 -182 -6 -199 -15
-18 -4 -41 39 -84 24 -24 30 -39 30 -71 0 -23 4 -41 9 -41 12 0 21 52 21 121
0 50 3 60 26 78 30 24 49 19 34 -9 -11 -20 -14 -282 -4 -343 4 -23 15 -42 27
-48 32 -18 55 15 66 96 14 100 34 452 27 470 -9 24 -64 -9 -81 -48 l-13 -31
-11 39 c-6 22 -11 78 -11 125 0 99 -14 130 -59 130 -15 0 -31 -3 -34 -7z m173
-397 c-17 -81 -35 -85 -27 -7 8 71 14 88 29 73 6 -6 6 -29 -2 -66z m-29 -171
c-9 -30 -9 -30 -10 10 -1 25 2 36 9 29 6 -6 6 -21 1 -39z"/>
<path d="M3700 5744 c-6 -14 -10 -88 -10 -165 0 -158 -7 -183 -65 -219 -20
-12 -35 -24 -33 -25 13 -13 386 39 403 56 16 16 -16 30 -58 24 -20 -3 -70 -8
-111 -11 l-73 -7 -6 54 c-4 30 -7 104 -7 164 0 114 -6 155 -21 155 -5 0 -14
-12 -19 -26z"/>
<path d="M2056 5672 c-25 -49 -41 -56 -141 -58 -111 -3 -238 -22 -262 -39 -9
-7 -14 -19 -10 -28 6 -15 10 -15 49 -1 28 11 97 19 198 23 189 9 200 13 200
81 0 56 -12 64 -34 22z"/>
<path d="M4794 5625 c-9 -37 -10 -187 -1 -209 14 -34 29 -2 35 72 8 115 -16
210 -34 137z"/>
<path d="M1847 5509 c-20 -31 -28 -210 -10 -216 39 -14 73 177 40 221 -14 19
-15 19 -30 -5z"/>
<path d="M3321 5356 c-19 -7 -37 -18 -39 -26 -4 -10 11 -11 75 -6 100 9 113 0
113 -77 0 -76 -16 -100 -74 -114 -68 -17 -77 -29 -26 -38 53 -9 83 -37 74 -69
-8 -34 26 -66 71 -66 19 0 35 3 35 6 0 4 -10 22 -21 41 -20 32 -21 43 -15 151
4 65 10 127 13 140 4 18 1 22 -19 22 -14 0 -34 11 -46 25 -25 28 -81 33 -141
11z"/>
<path d="M4765 5262 c-12 -28 -17 -265 -6 -282 16 -24 23 -6 33 91 14 127 -3
248 -27 191z"/>
<path d="M5018 5224 c-20 -32 -30 -155 -23 -282 4 -75 8 -244 9 -375 0 -130 4
-237 7 -237 4 0 13 7 20 17 11 13 14 91 12 422 -1 368 -8 484 -25 455z"/>
<path d="M4483 5173 c-4 -21 -8 -85 -7 -143 1 -103 15 -167 33 -156 15 9 22
142 14 240 -9 97 -26 124 -40 59z"/>
<path d="M1866 5109 c-62 -9 -111 -33 -101 -49 14 -23 208 -1 279 31 58 27
-46 37 -178 18z"/>
<path d="M1478 5059 c-26 -15 -22 -38 8 -45 29 -7 104 12 104 27 0 24 -81 37
-112 18z"/>
<path d="M3127 5056 c-4 -10 -7 -51 -7 -92 0 -57 3 -74 14 -74 19 0 26 23 26
89 0 62 -21 109 -33 77z"/>
<path d="M1664 4986 c-7 -19 22 -123 37 -132 29 -18 40 85 13 124 -17 25 -42
29 -50 8z"/>
<path d="M3558 4937 c-18 -19 -41 -27 -106 -37 -74 -11 -84 -11 -95 4 -11 15
-15 15 -47 -1 -54 -27 -46 -47 22 -54 32 -4 65 -12 73 -19 13 -11 20 -9 43 13
20 19 39 27 63 27 22 0 48 10 69 25 20 15 47 25 66 25 36 0 54 16 27 23 -68
19 -92 18 -115 -6z"/>
<path d="M3243 4745 c-6 -11 -16 -45 -23 -75 -18 -78 -35 -107 -78 -129 l-37
-20 200 -1 c160 0 205 -3 222 -15 18 -13 22 -13 34 1 26 31 67 42 199 54 136
12 159 18 145 41 -11 17 -151 6 -305 -25 -145 -30 -219 -32 -265 -10 -38 18
-64 65 -66 116 -1 18 -4 44 -8 58 -7 24 -8 24 -18 5z"/>
<path d="M1613 4721 c-64 -8 -85 -24 -53 -41 21 -11 137 -9 306 6 l62 5 11
-32 c6 -18 11 -63 11 -100 0 -38 5 -71 11 -75 21 -13 41 24 46 85 6 61 6 61
49 81 62 27 56 42 -13 39 -32 -1 -85 5 -118 14 -69 17 -235 27 -312 18z"/>
<path d="M4414 4717 c-2 -7 -1 -97 4 -199 9 -183 19 -239 33 -188 9 31 11 347
3 378 -7 24 -32 30 -40 9z"/>
<path d="M2642 4557 c1 -50 -1 -98 -5 -105 -5 -6 -21 -12 -37 -12 -34 0 -60
-9 -60 -21 0 -10 148 -10 195 0 41 9 38 32 -7 53 -48 23 -62 50 -54 106 6 43
-4 72 -25 72 -5 0 -8 -42 -7 -93z"/>
<path d="M2852 4558 c-17 -17 -15 -43 8 -133 11 -43 20 -96 20 -119 0 -31 3
-37 12 -28 7 7 13 57 16 122 l5 110 53 0 c64 0 72 16 12 22 -24 3 -59 12 -79
21 -27 12 -39 13 -47 5z"/>
<path d="M1458 4415 c-4 -4 14 -19 40 -33 45 -25 55 -26 232 -30 114 -3 229 1
298 9 132 15 131 15 133 -71 0 -59 11 -100 22 -83 3 5 11 43 18 83 9 61 9 75
-4 87 -12 12 -74 17 -338 24 -178 5 -340 11 -359 15 -19 3 -38 3 -42 -1z"/>
<path d="M3207 4409 c-22 -13 -13 -29 15 -29 42 0 148 22 148 31 0 12 -141 11
-163 -2z"/>
<path d="M3510 4353 c0 -42 2 -46 15 -32 11 10 13 25 9 47 -10 48 -24 39 -24
-15z"/>
<path d="M5171 4304 c0 -11 3 -14 6 -6 3 7 2 16 -1 19 -3 4 -6 -2 -5 -13z"/>
<path d="M3877 4253 c-17 -16 -4 -23 42 -23 56 0 84 8 75 21 -6 10 -107 12
-117 2z"/>
<path d="M3646 4210 c-72 -23 -162 -37 -287 -45 -92 -6 -131 -16 -112 -28 5
-3 76 -2 159 4 157 10 395 56 402 77 6 19 -95 14 -162 -8z"/>
<path d="M3033 4063 c-26 -10 -13 -33 18 -33 41 0 119 20 119 31 0 9 -116 11
-137 2z"/>
<path d="M2655 4014 c-11 -2 -58 -12 -103 -21 -53 -10 -86 -21 -89 -31 -6 -15
13 -221 23 -247 4 -8 11 -15 17 -15 7 0 8 40 3 124 -5 94 -3 126 6 133 7 6 54
13 103 17 97 8 172 23 181 37 5 9 -101 11 -141 3z"/>
<path d="M3913 3660 c-39 -5 -86 -16 -105 -25 -32 -14 -28 -15 72 -10 58 2
119 8 135 13 20 6 43 4 69 -5 50 -17 81 -17 95 1 9 11 9 16 0 22 -18 11 -186
14 -266 4z"/>
<path d="M3492 3621 c-11 -7 -11 -9 1 -14 19 -7 57 2 57 14 0 11 -41 11 -58 0z"/>
<path d="M3663 3618 c2 -7 9 -13 15 -12 7 1 21 2 32 3 35 2 21 21 -16 21 -24
0 -34 -4 -31 -12z"/>
<path d="M1651 3584 c-106 -13 -195 -25 -198 -28 -9 -9 6 -23 41 -40 28 -13
44 -15 78 -7 24 5 101 12 172 15 103 5 137 10 168 26 22 11 58 20 83 20 45 0
68 16 44 31 -23 15 -183 8 -388 -17z"/>
<path d="M4763 3583 c-13 -2 -23 -8 -23 -12 0 -19 135 -28 175 -11 48 19 -75
38 -152 23z"/>
<path d="M5015 3560 c-8 -13 6 -17 88 -24 37 -4 79 -11 93 -16 31 -12 154 -13
173 -1 22 14 -2 21 -131 36 -145 17 -214 19 -223 5z"/>
<path d="M2828 3548 c-8 -25 7 -248 17 -251 28 -6 26 251 -1 260 -6 2 -13 -2
-16 -9z"/>
<path d="M3586 3524 c-10 -25 -7 -234 3 -234 16 0 21 31 21 141 0 100 -9 133
-24 93z"/>
<path d="M2094 3507 c-8 -23 19 -208 31 -207 6 0 10 40 10 95 0 76 -3 98 -17
111 -16 16 -18 16 -24 1z"/>
<path d="M4547 3403 c-8 -14 11 -51 32 -62 34 -19 110 -12 193 16 56 19 75 30
68 37 -13 13 -286 21 -293 9z"/>
<path d="M5222 3323 c-18 -2 -30 -9 -27 -14 12 -18 205 -6 205 12 0 9 -113 10
-178 2z"/>
<path d="M840 3192 l0 -129 -112 -5 c-62 -3 -121 -9 -131 -13 -38 -16 -38 -14
-19 -785 16 -663 9 -1544 -13 -1580 -9 -15 -9 -140 1 -256 l6 -71 92 -13 c50
-7 145 -28 211 -47 175 -51 175 -51 407 -73 117 -11 247 -25 288 -31 41 -6
215 -14 385 -19 268 -7 318 -11 370 -28 108 -35 411 -53 995 -57 460 -3 659
-14 732 -41 54 -20 247 -38 403 -37 144 1 368 34 530 79 33 9 125 29 205 44
80 16 137 29 128 29 -10 1 -18 5 -18 10 0 4 42 14 93 20 50 7 119 19 152 26
33 7 87 16 120 20 86 10 93 13 104 48 6 18 15 120 21 227 10 200 13 236 31
375 16 123 25 2183 9 2198 -18 20 -23 -30 -29 -312 -6 -251 -10 -301 -24 -328
-21 -39 -22 -73 -2 -99 20 -26 20 -118 0 -134 -18 -15 -20 -60 -2 -60 19 0 21
-977 2 -1081 -27 -145 -48 -418 -39 -514 11 -130 9 -212 -7 -231 -22 -27 -80
-43 -289 -79 -95 -17 -250 -20 -250 -6 0 5 26 15 58 21 164 33 222 56 222 86
0 20 -33 15 -105 -14 -27 -12 -91 -34 -141 -49 -50 -16 -89 -33 -87 -39 6 -19
-22 -42 -59 -48 -43 -8 -53 9 -14 24 13 5 27 13 30 19 14 22 -19 21 -102 -3
-48 -13 -112 -29 -142 -35 -274 -53 -361 -62 -400 -41 -24 13 -42 77 -34 119
8 41 35 57 104 66 30 3 101 15 158 26 111 21 182 24 182 10 0 -5 -13 -12 -30
-16 -57 -13 -45 -27 16 -20 70 9 74 11 74 35 0 25 42 53 72 48 16 -2 24 -11
26 -30 4 -36 -27 -67 -60 -61 -14 3 -45 -2 -69 -10 -24 -8 -71 -18 -104 -22
-53 -7 -58 -6 -47 7 11 13 9 17 -12 22 -48 12 -126 -13 -126 -40 0 -9 -6 -14
-12 -11 -7 3 -29 12 -49 21 -30 12 -39 13 -54 2 -35 -25 -8 -116 34 -116 81 0
700 146 726 171 5 5 -11 9 -43 9 -48 0 -52 2 -52 24 0 23 5 25 68 32 89 9 128
24 208 78 78 54 99 59 89 18 -17 -71 -17 -90 2 -100 26 -14 55 0 96 48 l36 42
-26 23 -27 22 17 139 c9 76 22 274 27 439 6 165 15 351 21 414 11 122 5 211
-13 193 -6 -6 -14 -55 -18 -109 -8 -106 -15 -133 -35 -133 -36 0 -50 197 -18
251 16 27 16 31 -1 59 -17 30 -17 31 13 77 22 33 31 58 31 88 0 22 5 46 11 52
8 8 8 17 -1 33 -16 30 -6 103 21 146 21 34 19 54 -6 54 -16 0 -25 22 -25 61 0
45 -17 34 -24 -16 -6 -39 -10 -45 -32 -45 -25 0 -25 0 -18 73 7 84 6 86 -76
112 -30 10 -59 21 -65 26 -16 15 -35 10 -58 -17 -26 -30 -54 -24 -63 13 -8 31
3 39 76 53 30 6 91 20 134 31 44 10 97 19 118 19 43 0 108 23 108 39 0 15 -22
18 -63 8 -27 -7 -54 -6 -88 1 -53 13 -92 4 -102 -22 -4 -10 -18 -16 -37 -16
-17 0 -47 -7 -67 -15 -56 -24 -85 -15 -87 26 -1 17 -8 25 -23 27 -13 2 -23 7
-23 11 0 13 65 21 163 21 l88 0 14 34 c19 46 27 49 114 56 68 5 101 20 69 32
-26 10 -144 -13 -190 -37 -35 -18 -90 -31 -220 -49 -172 -25 -173 -25 -188 -5
-12 15 -18 17 -28 7 -9 -9 -15 -9 -24 1 -11 10 -8 16 12 33 25 20 51 21 151 3
31 -6 41 -2 74 27 l38 33 -131 5 c-88 3 -135 9 -144 18 -29 29 24 37 282 47
80 2 170 5 200 6 l55 1 -60 12 c-40 8 -85 10 -130 5 -85 -10 -321 -10 -355 0
l-24 7 24 17 c16 11 25 27 25 44 0 41 49 51 247 52 92 1 169 5 172 10 8 12
-65 22 -103 15 -28 -6 -31 -4 -31 19 0 14 -5 29 -11 32 -18 12 -59 -5 -70 -28
-10 -22 -12 -22 -247 -23 -228 -2 -237 -3 -253 -23 -10 -12 -19 -27 -21 -33
-3 -8 -16 -5 -40 10 -29 18 -50 22 -117 22 -78 0 -82 1 -91 25 -8 20 -13 23
-32 16 -13 -4 -29 -19 -35 -32 -18 -34 -16 -100 3 -127 15 -21 15 -25 0 -41
-9 -9 -20 -46 -24 -80 -5 -35 -15 -67 -23 -72 -8 -5 -36 -9 -64 -9 -27 0 -75
-7 -105 -15 -34 -9 -101 -15 -175 -15 -66 0 -147 -5 -180 -12 -37 -7 -190 -12
-405 -12 -228 -1 -351 -5 -364 -12 -25 -15 74 -24 270 -24 109 0 165 -4 205
-16 70 -21 177 -12 278 23 57 19 83 24 115 18 55 -10 77 -9 241 4 203 18 204
18 218 49 11 25 12 21 15 -43 2 -38 -2 -99 -9 -135 -6 -36 -15 -121 -19 -190
-5 -69 -13 -181 -19 -250 -7 -75 -11 -277 -9 -506 3 -359 4 -383 22 -403 19
-21 19 -21 0 -42 -18 -20 -19 -43 -22 -351 l-3 -329 -177 2 c-97 1 -219 -2
-271 -6 -77 -6 -105 -4 -152 10 -56 17 -58 17 -92 -4 -30 -18 -49 -21 -148
-21 -196 1 -359 28 -392 66 -27 31 -87 47 -147 39 l-47 -6 -7 52 c-5 38 -15
59 -36 80 -27 28 -28 30 -15 72 20 66 35 362 35 675 0 248 2 280 18 302 15 22
17 51 18 220 0 156 4 207 18 255 l17 60 -71 67 c-39 37 -96 79 -128 94 -31 15
-74 41 -95 57 -24 18 -42 26 -48 20 -16 -16 19 -52 104 -107 45 -29 89 -65 97
-80 13 -26 13 -29 -5 -43 -21 -16 -45 -15 -208 7 -115 15 -640 9 -680 -8 -68
-29 -12 -36 428 -52 281 -11 328 -17 333 -41 1 -8 -24 -42 -55 -77 l-58 -62
-255 20 c-140 11 -277 25 -305 31 -77 17 -130 52 -154 102 -12 24 -33 49 -47
56 -31 14 -23 31 17 31 45 0 35 16 -23 38 -39 15 -54 26 -58 43 -3 13 -14 25
-23 27 -28 6 -21 -46 14 -108 18 -30 76 -100 131 -156 l99 -102 172 -6 c327
-13 592 -26 635 -32 l43 -6 -3 -42 -3 -41 -245 -3 c-325 -4 -530 17 -530 53 0
8 -1 15 -2 15 -13 0 -176 31 -207 40 -48 13 -54 30 -10 30 32 0 37 22 6 28
-16 3 -36 -13 -75 -62 l-23 -29 -34 33 c-23 22 -38 31 -45 24 -6 -6 -6 -128 1
-354 11 -384 19 -502 34 -507 7 -2 10 119 10 349 0 346 0 353 20 353 12 0 21
-8 23 -20 6 -35 31 -46 63 -30 26 14 29 14 39 -4 5 -11 10 -40 10 -64 0 -24 3
-73 7 -108 l7 -64 13 60 c8 33 14 75 13 93 -1 38 15 72 35 72 7 0 17 9 20 20
3 11 10 20 15 20 12 0 17 -24 25 -115 4 -44 14 -97 22 -118 10 -25 14 -53 10
-81 -5 -35 -3 -47 13 -61 19 -17 21 -17 39 -1 19 17 20 17 30 -3 6 -11 11 -44
11 -75 0 -82 12 -103 72 -130 65 -29 85 -51 85 -93 -1 -61 40 -82 70 -36 16
24 18 52 18 219 0 106 3 196 8 200 4 4 7 -15 7 -43 0 -106 24 -146 43 -72 9
34 9 34 19 9 9 -24 3 -253 -8 -313 -4 -19 -1 -29 11 -33 26 -10 35 14 35 99 0
44 4 77 10 77 6 0 10 -31 10 -72 1 -86 15 -156 37 -180 19 -21 31 -15 45 20
l10 27 9 -24 c5 -13 6 -46 3 -72 l-7 -49 -138 0 c-133 0 -138 -1 -168 -26 -31
-26 -42 -64 -18 -64 74 1 380 -12 440 -19 85 -10 97 -15 78 -34 -9 -9 -103
-12 -386 -12 -206 0 -365 -3 -355 -7 32 -12 276 -28 500 -34 118 -3 225 -7
238 -10 28 -6 28 -28 0 -48 -27 -19 -212 -21 -513 -6 -388 18 -535 22 -535 13
0 -19 109 -34 245 -33 143 1 714 -25 795 -36 51 -7 90 -28 90 -48 0 -19 22
-26 108 -36 79 -9 92 -14 74 -32 -13 -13 -151 -16 -195 -5 -16 5 -32 18 -37
32 -12 31 -28 25 -60 -23 -21 -31 -25 -49 -25 -109 0 -55 4 -76 17 -90 27 -26
41 -4 46 72 l4 66 207 -7 c113 -3 316 -9 451 -13 l245 -6 5 -87 c6 -93 10
-104 36 -94 14 6 16 17 10 86 l-7 80 28 11 c17 6 87 9 175 7 140 -3 148 -4
163 -25 21 -30 53 -29 64 1 11 28 29 36 87 36 34 0 51 -6 76 -29 32 -28 33
-31 20 -63 -8 -18 -20 -62 -28 -98 -23 -106 -83 -137 -174 -90 -25 13 -78 24
-144 31 -101 11 -109 10 -224 -18 -23 -5 -93 19 -122 43 -12 10 -25 10 -57 1
-32 -8 -88 -8 -226 2 -143 10 -202 10 -268 1 -144 -21 -578 5 -649 38 -29 13
-72 17 -237 17 l-202 0 -27 27 c-24 24 -27 36 -33 121 -3 53 -10 99 -14 103
-16 17 -25 -15 -29 -108 -2 -60 -9 -103 -16 -110 -17 -17 -359 -18 -422 -1
-25 7 -57 14 -71 17 -31 7 -48 41 -58 118 l-7 53 -6 -52 c-12 -95 -14 -97
-132 -89 -203 14 -322 34 -393 64 -37 17 -94 36 -126 43 -93 20 -92 19 -91
161 0 74 6 145 15 178 13 47 14 119 7 474 -6 371 -5 421 9 442 17 26 30 142
19 171 -7 17 -8 17 -21 0 -12 -17 -14 -15 -19 25 -4 23 -8 216 -10 428 -3 212
-8 439 -11 505 -9 159 -8 160 106 149 l84 -9 5 -44 c7 -60 26 -63 49 -7 22 50
40 59 156 73 l60 7 -55 8 c-119 18 -155 47 -82 67 47 14 143 14 177 1 23 -9
26 -14 20 -40 -6 -26 -4 -30 14 -30 14 0 25 9 31 25 20 54 119 89 175 62 28
-13 55 -14 191 -6 159 9 345 4 375 -12 8 -4 21 -26 28 -49 15 -50 32 -48 46 7
6 23 22 51 39 65 29 24 29 26 10 36 -14 7 -34 7 -69 0 -34 -7 -73 -7 -129 0
-81 11 -202 10 -538 -3 -234 -10 -361 0 -394 29 -23 19 -26 32 -32 115 -5 62
-11 96 -19 99 -10 3 -13 -27 -13 -126z m15 -197 c0 -22 -21 -27 -173 -39 -83
-7 -83 -6 -80 16 4 33 56 48 163 45 82 -2 90 -4 90 -22z m4084 -71 c13 -12 11
-15 -17 -20 -18 -4 -34 -14 -37 -25 -9 -28 -34 -23 -41 8 -13 52 53 78 95 37z
m-119 -49 c0 -8 -7 -15 -15 -15 -8 0 -15 7 -15 15 0 8 7 15 15 15 8 0 15 -7
15 -15z m-253 -67 c-2 -13 -4 -5 -4 17 -1 22 1 32 4 23 2 -10 2 -28 0 -40z
m148 3 c8 -14 -13 -24 -33 -16 -14 5 -14 7 -2 15 19 12 27 12 35 1z m95 -31
c0 -5 -9 -10 -21 -10 -11 0 -17 5 -14 10 3 6 13 10 21 10 8 0 14 -4 14 -10z
m73 -87 c-4 -10 -9 -11 -16 -4 -5 5 -7 18 -3 28 6 14 9 15 16 4 4 -8 6 -21 3
-28z m-243 8 c0 -5 -13 -12 -30 -16 -16 -4 -32 -11 -35 -16 -10 -14 -35 -10
-35 6 0 7 8 19 18 24 21 13 82 14 82 2z m576 -112 c11 -18 -17 -29 -77 -29
-61 0 -75 6 -58 27 14 16 125 18 135 2z m-708 -103 c2 -9 1 -25 -3 -34 -5 -14
-7 -14 -15 -2 -14 22 -12 62 3 58 6 -3 14 -12 15 -22z m712 10 c0 -7 -16 -26
-35 -40 -19 -15 -35 -23 -35 -17 0 5 -3 16 -6 24 -3 8 2 22 11 31 20 20 65 21
65 2z m-500 -21 c0 -8 -4 -15 -10 -15 -5 0 -10 7 -10 15 0 8 5 15 10 15 6 0
10 -7 10 -15z m62 0 c0 -5 -5 -11 -11 -13 -6 -2 -11 4 -11 13 0 9 5 15 11 13
6 -2 11 -8 11 -13z m78 -9 c0 -14 -4 -28 -10 -31 -6 -4 -10 7 -10 24 0 17 5
31 10 31 6 0 10 -11 10 -24z m238 6 c2 -7 -3 -12 -12 -12 -9 0 -16 7 -16 16 0
17 22 14 28 -4z m-68 -1 c0 -12 -20 -25 -27 -18 -7 7 6 27 18 27 5 0 9 -4 9
-9z m324 -76 c-8 -19 -43 -30 -56 -17 -16 16 0 32 32 32 22 0 28 -4 24 -15z
m78 -59 c10 -46 -7 -116 -27 -116 -7 0 -16 14 -20 30 -6 28 1 105 12 123 10
17 28 -1 35 -37z m-837 23 c10 -14 1 -21 -19 -13 -9 3 -13 10 -10 15 7 12 21
11 29 -2z m920 -11 c3 -13 2 -70 -3 -128 -5 -83 -10 -105 -22 -105 -12 0 -16
19 -18 101 -3 98 7 154 28 154 5 0 12 -10 15 -22z m-155 -33 c0 -20 -39 -40
-53 -26 -7 7 -6 15 3 26 16 19 50 20 50 0z m-215 -16 c0 -17 -47 -19 -52 -2
-2 6 4 13 14 16 26 7 38 2 38 -14z m-515 -19 c9 -18 8 -20 -15 -20 -27 0 -28
1 -19 24 8 22 21 20 34 -4z m300 2 c0 -13 -12 -22 -22 -16 -10 6 -1 24 13 24
5 0 9 -4 9 -8z m89 -4 c0 -7 -4 -22 -9 -33 -7 -17 -9 -15 -9 13 -1 17 4 32 9
32 6 0 10 -6 9 -12z m319 -45 c-4 -22 -48 -31 -48 -10 0 19 10 27 32 27 13 0
18 -6 16 -17z m-848 -24 c0 -21 -16 -26 -23 -6 -6 17 3 38 14 31 5 -3 9 -14 9
-25z m640 12 c0 -5 -7 -14 -15 -21 -12 -10 -15 -10 -15 2 0 8 3 18 7 21 9 10
23 9 23 -2z m-175 -10 c7 -12 -31 -25 -46 -15 -8 4 -7 9 2 15 18 11 36 11 44
0z m-2065 -59 c0 -33 -6 -63 -26 -151 -5 -22 -8 -23 -79 -19 -114 5 -123 30
-34 95 88 64 101 76 110 100 13 34 29 19 29 -25z m2700 -9 c-1 -52 -16 -186
-26 -215 -9 -29 -23 -21 -30 18 -8 41 10 194 26 224 18 34 30 22 30 -27z
m-478 16 c11 -6 41 -14 67 -18 31 -4 46 -11 46 -21 0 -11 -15 -16 -65 -18 -76
-3 -107 12 -96 46 8 25 18 27 48 11z m318 -53 c0 -64 0 -65 27 -63 24 2 29 -3
37 -35 12 -47 -3 -123 -24 -123 -11 0 -16 13 -18 45 -4 55 -18 73 -28 36 -8
-33 -30 -29 -26 5 5 46 4 74 -3 121 -5 33 -4 53 5 63 23 27 30 16 30 -49z
m-112 22 c-3 -7 -15 -15 -28 -16 -21 -3 -22 -2 -11 12 16 19 44 21 39 4z m10
-70 c3 -17 -50 -44 -67 -33 -20 12 -11 33 17 43 33 13 46 10 50 -10z m-903
-160 c-3 -90 -8 -179 -11 -198 -5 -30 -7 -32 -16 -16 -7 13 -7 45 1 105 6 48
11 119 11 157 0 66 7 114 17 114 2 0 1 -73 -2 -162z m762 146 c4 -12 -41 -24
-93 -24 -48 0 -42 17 9 29 51 11 79 10 84 -5z m-163 -29 c-4 -8 -10 -15 -15
-15 -5 0 -9 7 -9 15 0 8 7 15 15 15 9 0 12 -6 9 -15z m-375 -4 c22 -14 -20
-31 -78 -31 -54 0 -72 12 -44 29 22 13 103 14 122 2z m668 -43 c-2 -13 -8 -31
-12 -40 -5 -13 -3 -18 9 -18 9 0 16 -4 16 -10 0 -5 -13 -10 -30 -10 -16 0 -30
-3 -30 -8 0 -16 -90 -34 -192 -40 -74 -3 -108 -1 -108 6 0 20 24 26 135 33
117 8 149 15 139 31 -4 7 -33 8 -79 4 -76 -7 -105 -2 -105 19 0 16 74 35 142
36 29 0 62 4 73 9 35 15 48 12 42 -12z m-657 -47 c0 -13 -37 -21 -97 -21 -49
0 -71 9 -56 24 10 9 153 7 153 -3z m-2710 -46 c9 -25 4 -55 -9 -55 -16 0 -31
26 -31 52 0 36 27 38 40 3z m2780 -25 c0 -9 -121 -21 -148 -13 -36 9 -25 22
21 25 57 4 127 -2 127 -12z m688 -22 c-9 -25 -128 -38 -128 -14 0 19 15 24 78
25 39 1 53 -2 50 -11z m105 5 c12 -11 -14 -33 -39 -33 -25 0 -39 14 -29 30 7
11 58 14 68 3z m-389 -32 c34 -13 2 -22 -137 -36 -157 -17 -187 -18 -187 -6 0
30 268 64 324 42z m-395 -20 c23 -15 -6 -23 -99 -29 -86 -5 -111 3 -95 28 8
12 175 13 194 1z m416 -31 c12 -19 -16 -40 -51 -40 -45 0 -46 26 -1 39 43 12
45 13 52 1z m360 -97 c-14 -210 -55 -237 -55 -38 0 108 7 135 37 135 l25 0 -7
-97z m-177 36 c2 -37 -2 -52 -21 -74 -34 -40 -50 -26 -45 41 5 57 22 87 47 82
11 -2 17 -17 19 -49z m78 15 c8 -44 -2 -163 -17 -201 l-12 -28 -9 30 c-9 29
-3 209 8 226 11 19 23 7 30 -27z m-450 -1 c-10 -10 -19 5 -10 18 6 11 8 11 12
0 2 -7 1 -15 -2 -18z m-2503 -8 c-1 -5 -8 -14 -17 -20 -18 -11 -42 7 -31 25 8
13 51 9 48 -5z m402 -337 c-6 -353 -13 -461 -26 -452 -5 3 -9 113 -9 252 1
307 15 512 36 512 2 0 2 -141 -1 -312z m1912 265 c-9 -9 -20 -12 -28 -8 -9 6
-8 11 6 21 23 17 42 6 22 -13z m393 -18 c0 -19 -4 -35 -10 -35 -5 0 -10 16
-10 35 0 19 5 35 10 35 6 0 10 -16 10 -35z m-2733 9 c-3 -3 -12 -4 -19 -1 -8
3 -5 6 6 6 11 1 17 -2 13 -5z m2638 -34 c-3 -5 -13 -10 -21 -10 -8 0 -14 5
-14 10 0 6 9 10 21 10 11 0 17 -4 14 -10z m165 -25 c0 -8 -4 -15 -10 -15 -5 0
-10 7 -10 15 0 8 5 15 10 15 6 0 10 -7 10 -15z m-3005 -112 c5 -22 4 -33 -4
-33 -6 0 -11 1 -11 3 0 1 -4 29 -10 61 -5 32 -6 64 -2 70 4 6 10 -7 13 -29 4
-22 10 -55 14 -72z m2335 92 c0 -8 -7 -15 -15 -15 -16 0 -20 12 -8 23 11 12
23 8 23 -8z m745 -21 c20 -30 14 -54 -14 -54 -22 0 -35 30 -26 60 8 27 19 25
40 -6z m296 -96 c8 -14 6 -25 -6 -44 -27 -41 -55 -26 -55 30 0 45 39 55 61 14z
m-106 -32 c0 -38 -22 -45 -35 -11 -12 31 -5 47 18 43 11 -2 17 -13 17 -32z
m-1035 8 c0 -8 -4 -12 -10 -9 -5 3 -10 10 -10 16 0 5 5 9 10 9 6 0 10 -7 10
-16z m948 -12 c2 -15 -5 -32 -18 -44 -27 -25 -18 -36 48 -60 26 -9 38 -17 27
-17 -39 -2 -45 -20 -19 -58 37 -55 32 -153 -7 -153 -12 0 -21 -10 -25 -27 -6
-21 -2 -31 21 -49 l28 -22 -11 -84 c-6 -46 -14 -130 -18 -186 l-6 -104 -33
-13 c-25 -11 -169 -35 -207 -35 -5 0 -8 -4 -8 -10 0 -5 24 -10 53 -10 28 0 59
-5 67 -10 29 -18 -7 -33 -90 -38 -74 -4 -83 -3 -96 17 -11 15 -26 21 -54 21
-84 0 -44 47 49 58 34 4 62 12 61 17 0 6 -30 12 -67 15 -54 4 -68 9 -71 22 -3
18 43 44 113 64 36 11 86 80 90 124 1 18 10 37 19 42 23 13 20 33 -9 46 -14 6
-25 17 -25 24 0 23 16 39 33 32 29 -11 67 5 77 31 7 18 5 45 -5 90 -13 54 -14
88 -5 189 12 153 14 158 54 154 24 -2 32 -8 34 -26z m-110 -28 c3 -23 -21 -49
-38 -39 -11 7 -14 48 -3 59 13 13 38 1 41 -20z m-98 6 c0 -5 -9 -10 -21 -10
-11 0 -17 5 -14 10 3 6 13 10 21 10 8 0 14 -4 14 -10z m-2974 -23 c8 -34 1
-102 -11 -102 -5 0 -11 28 -13 63 -3 62 12 86 24 39z m2174 -35 c0 -13 -12
-22 -22 -16 -10 6 -1 24 13 24 5 0 9 -4 9 -8z m1183 -63 c-1 -24 -3 -75 -3
-114 0 -81 -10 -106 -34 -86 -23 19 -29 70 -16 140 13 74 29 113 44 108 6 -2
10 -23 9 -48z m-1108 31 c-3 -5 -10 -10 -16 -10 -5 0 -9 5 -9 10 0 6 7 10 16
10 8 0 12 -4 9 -10z m707 -27 c33 -30 12 -104 -26 -90 -14 5 -16 14 -11 36 5
22 2 32 -11 39 -19 11 -11 32 13 32 9 0 25 -7 35 -17z m99 -5 c12 -22 7 -196
-6 -218 -7 -11 -103 -14 -129 -4 -9 3 -16 15 -16 26 0 17 5 19 44 13 l43 -7 6
39 c4 21 7 63 7 94 0 73 27 103 51 57z m-465 -25 c-10 -10 -19 5 -10 18 6 11
8 11 12 0 2 -7 1 -15 -2 -18z m-83 -8 c-3 -13 -53 -20 -53 -7 0 15 13 23 35
20 11 -2 19 -7 18 -13z m-141 -10 c2 -13 -49 -31 -59 -21 -10 10 27 38 45 34
7 -2 14 -7 14 -13z m-116 -70 c8 -47 -2 -81 -26 -88 -25 -6 -28 -58 -4 -77 27
-23 37 -50 23 -66 -17 -21 -57 -17 -70 8 -16 29 -3 123 21 163 11 18 20 43 20
57 0 49 27 52 36 3z m508 2 c-3 -9 -15 -17 -25 -17 -11 0 -31 -7 -44 -16 -44
-29 -157 8 -125 40 15 15 114 13 133 -2 11 -10 18 -8 32 8 20 22 40 13 29 -13z
m-274 -12 c0 -8 -7 -15 -15 -15 -16 0 -20 12 -8 23 11 12 23 8 23 -8z m-134
-23 c-22 -5 -30 3 -21 18 5 8 11 7 22 -2 15 -12 14 -13 -1 -16z m494 -66 c0
-8 -4 -18 -10 -21 -5 -3 -10 3 -10 14 0 12 5 21 10 21 6 0 10 -6 10 -14z
m-162 -24 c5 -31 -15 -52 -49 -52 -30 0 -62 25 -56 44 6 17 49 36 77 34 18 -2
26 -10 28 -26z m-160 -21 c4 -25 -19 -51 -44 -51 -14 0 -44 27 -44 40 0 19 34
41 59 38 19 -2 27 -10 29 -27z m232 14 c0 -8 -4 -15 -10 -15 -5 0 -10 7 -10
15 0 8 5 15 10 15 6 0 10 -7 10 -15z m-386 -1 c38 -14 4 -84 -41 -84 -26 0
-32 27 -8 36 8 4 15 17 15 30 0 25 7 28 34 18z m971 -145 c-1 -161 -10 -224
-36 -250 -43 -43 -47 -6 -24 196 17 142 31 198 48 192 8 -3 12 -45 12 -138z
m-371 65 c8 -22 8 -24 -8 -24 -18 0 -29 16 -21 30 9 15 22 12 29 -6z m-2464
-14 c0 -5 -7 -10 -15 -10 -8 0 -15 5 -15 10 0 6 7 10 15 10 8 0 15 -4 15 -10z
m2150 -10 c0 -13 -34 -30 -59 -30 -28 0 -27 18 2 30 30 12 57 12 57 0z m-245
-40 c-3 -5 -24 -10 -46 -10 -24 0 -38 4 -34 10 3 6 24 10 46 10 24 0 38 -4 34
-10z m251 -32 c10 -17 -33 -48 -67 -48 -36 0 -37 12 -3 39 30 23 59 27 70 9z
m80 -15 c-10 -10 -19 5 -10 18 6 11 8 11 12 0 2 -7 1 -15 -2 -18z m188 17
c-15 -15 -114 -25 -114 -12 0 15 18 20 75 21 33 1 46 -2 39 -9z m-450 -16 c16
-6 22 -45 10 -57 -11 -11 -44 13 -44 32 0 28 9 35 34 25z m-99 -39 c0 -5 -17
-11 -37 -13 -36 -3 -47 5 -31 22 11 10 68 3 68 -9z m-152 -32 c-2 -18 2 -35 7
-38 6 -3 10 -23 10 -44 0 -23 6 -44 15 -51 9 -8 13 -20 10 -29 -4 -9 -11 -45
-16 -80 -11 -73 -21 -91 -55 -91 -41 0 -54 91 -34 235 14 99 28 137 48 133 12
-3 16 -13 15 -35z m702 17 c0 -21 -63 -50 -107 -50 -42 0 -47 9 -20 33 40 37
127 48 127 17z m-259 -31 c10 -17 -8 -28 -59 -35 -38 -5 -47 -4 -47 8 0 29 90
52 106 27z m74 -4 c0 -8 -7 -15 -15 -15 -8 0 -15 7 -15 15 0 8 7 15 15 15 8 0
15 -7 15 -15z m-392 -47 c-3 -7 -11 -13 -18 -13 -7 0 -15 6 -17 13 -3 7 4 12
17 12 13 0 20 -5 18 -12z m389 -34 c7 -18 -12 -64 -27 -64 -17 0 -23 30 -12
56 13 27 30 31 39 8z m-83 -3 c10 -16 -12 -59 -38 -76 -54 -36 -92 20 -44 65
22 20 72 27 82 11z m-170 -32 c26 -37 -17 -96 -50 -68 -17 14 -17 29 -4 63 12
32 34 33 54 5z m-134 -51 c-1 -55 -27 -133 -45 -137 -16 -3 -17 3 -13 57 3 32
11 69 17 81 15 28 41 27 41 -1z m390 -43 c0 -12 -28 -35 -44 -35 -11 0 -6 26
6 38 17 17 38 15 38 -3z m-125 -45 c-18 -19 -65 -28 -65 -12 0 17 25 32 54 32
28 0 29 0 11 -20z m134 -304 c10 -12 6 -16 -21 -24 -18 -6 -55 -13 -83 -17
-27 -3 -84 -15 -127 -26 -84 -21 -158 -25 -158 -8 0 16 62 38 163 59 159 33
209 36 226 16z"/>
<path d="M2086 3239 c-26 -31 -34 -59 -17 -59 19 0 71 52 71 71 0 28 -25 23
-54 -12z"/>
<path d="M3805 3229 c-105 -15 -117 -22 -55 -30 131 -17 240 -6 200 21 -8 5
-22 10 -30 10 -8 0 -24 2 -35 4 -11 2 -47 0 -80 -5z"/>
<path d="M3408 3174 c-69 -14 -122 -39 -112 -55 7 -13 464 -12 464 1 0 6 -1
10 -2 11 -2 0 -54 4 -117 8 -99 7 -117 12 -132 30 -9 11 -21 20 -26 20 -4 -1
-38 -7 -75 -15z"/>
<path d="M2263 3135 c-23 -7 -56 -24 -73 -39 -18 -14 -38 -26 -46 -26 -8 0
-14 -4 -14 -10 0 -16 26 -12 65 12 31 18 57 22 162 26 104 4 125 2 121 -9 -3
-10 -32 -16 -98 -21 -51 -4 -95 -10 -98 -12 -13 -13 59 -26 133 -24 86 2 114
-8 116 -41 0 -11 3 -8 9 7 20 49 149 72 410 72 122 0 165 4 204 17 48 18 48
18 67 -6 15 -18 19 -40 19 -105 0 -96 16 -164 33 -147 8 8 13 59 15 135 l4
123 -39 24 c-44 28 -98 30 -212 10 -111 -20 -465 -11 -508 12 -39 21 -206 23
-270 2z"/>
<path d="M3907 3134 c-3 -4 3 -18 13 -32 15 -19 19 -34 14 -58 -3 -19 -3 -45
0 -59 8 -33 42 -34 50 0 7 26 -8 105 -25 136 -9 18 -39 26 -52 13z"/>
<path d="M4820 3092 c0 -13 25 -22 62 -22 19 0 28 4 26 13 -5 14 -88 23 -88 9z"/>
<path d="M5598 3071 c-148 -8 -167 -20 -58 -36 68 -11 90 -10 153 9 53 15 79
38 40 34 -10 -1 -71 -4 -135 -7z"/>
<path d="M1267 2966 c-31 -17 -36 -25 -32 -46 2 -14 6 -73 7 -132 4 -139 3
-141 -132 -148 -113 -6 -132 -15 -106 -54 19 -30 34 -33 51 -9 9 12 28 17 66
18 l54 0 9 -52 c5 -29 12 -53 17 -53 14 0 20 37 10 63 -7 19 -6 28 4 37 17 14
109 26 282 36 117 6 121 6 132 -15 14 -25 35 -26 87 -5 21 9 77 19 124 22 61
5 85 11 85 21 0 11 -56 13 -302 15 -225 1 -305 4 -314 13 -21 21 -25 185 -5
224 16 33 22 90 9 88 -5 -1 -25 -11 -46 -23z"/>
<path d="M5295 2950 c-4 -6 8 -10 29 -10 20 0 36 5 36 10 0 6 -13 10 -29 10
-17 0 -33 -4 -36 -10z"/>
<path d="M5113 2943 c-7 -2 -13 -9 -13 -14 0 -12 90 -1 105 12 9 9 -70 11 -92
2z"/>
<path d="M720 2675 c-11 -13 -11 -19 3 -32 28 -28 157 -15 157 16 0 5 -21 12
-47 15 -27 4 -60 9 -74 12 -16 3 -31 -1 -39 -11z"/>
<path d="M2216 2677 c-10 -7 -21 -28 -25 -46 -7 -36 -22 -45 -242 -160 -124
-65 -163 -107 -139 -151 15 -29 26 -25 47 17 11 24 29 41 48 47 17 6 46 23 65
38 19 14 62 41 95 59 33 18 77 47 98 66 34 31 42 33 106 33 39 0 82 5 97 11
40 15 69 4 120 -43 32 -29 48 -38 55 -31 8 8 -1 24 -30 56 -61 66 -53 80 30
55 49 -14 62 -3 29 24 -21 17 -35 20 -95 15 -45 -3 -83 0 -108 9 -50 18 -128
18 -151 1z"/>
<path d="M2851 2626 c-28 -34 53 -62 94 -33 17 13 17 15 -6 30 -29 21 -72 22
-88 3z"/>
<path d="M3912 2586 c-15 -7 -20 -16 -15 -26 10 -19 10 -116 1 -203 -6 -57 -5
-69 8 -74 23 -9 31 11 33 81 1 74 19 176 33 194 7 8 7 17 -2 27 -14 17 -25 17
-58 1z"/>
<path d="M4161 2560 c-46 -20 -15 -29 142 -46 40 -5 57 -3 57 5 0 30 -152 61
-199 41z"/>
<path d="M1526 2494 c-3 -16 -2 -74 3 -129 4 -58 4 -104 -1 -110 -5 -6 -80
-10 -186 -10 -148 1 -182 4 -209 18 -41 22 -63 64 -70 133 -8 76 -23 56 -23
-31 l0 -74 -47 -6 c-44 -6 -125 -51 -145 -79 -4 -6 -8 -46 -8 -89 0 -94 15
-99 45 -16 22 61 83 129 115 129 11 0 31 -7 45 -16 14 -9 58 -17 115 -21 76
-5 96 -10 112 -27 15 -15 22 -17 25 -8 9 25 50 36 173 46 l125 11 -1 35 c-1
69 -34 244 -48 258 -12 12 -15 10 -20 -14z"/>
<path d="M3775 2500 c-11 -17 -9 -110 2 -121 12 -12 36 67 31 101 -3 26 -22
37 -33 20z"/>
<path d="M3340 2360 c0 -12 10 -40 23 -63 l22 -42 3 38 c2 23 -3 48 -13 63
-19 29 -35 31 -35 4z"/>
<path d="M1674 2215 c-9 -34 24 -176 43 -182 33 -11 19 145 -17 190 l-18 22
-8 -30z"/>
<path d="M4042 2182 c-33 -10 -29 -24 10 -36 43 -15 58 -47 58 -132 0 -69 25
-169 39 -159 5 2 11 47 14 100 3 62 12 108 24 133 16 33 23 38 66 44 54 7 62
12 53 27 -17 26 -196 42 -264 23z"/>
<path d="M3840 2160 c-13 -9 -12 -12 4 -25 11 -8 27 -15 36 -15 25 0 80 21 80
30 0 20 -93 28 -120 10z"/>
<path d="M3255 2149 c-174 -8 -165 -7 -165 -18 0 -6 79 -7 194 -4 l194 6 7
-150 c4 -83 4 -173 0 -201 -6 -46 -5 -51 15 -57 37 -12 42 5 31 108 -14 119
-14 182 -1 228 13 46 63 69 148 69 59 0 88 12 56 24 -19 7 -292 5 -479 -5z"/>
<path d="M1243 2074 c-7 -18 3 -235 13 -303 l7 -44 -147 6 c-144 7 -226 2
-226 -13 0 -4 42 -11 93 -14 50 -4 158 -14 239 -23 146 -15 358 -11 358 7 0
16 -29 30 -82 41 -44 9 -66 8 -118 -5 -93 -24 -93 -25 -101 187 -4 94 -8 173
-8 175 -3 9 -23 -1 -28 -14z"/>
<path d="M1187 2053 c-11 -18 -18 -83 -12 -104 7 -22 8 -22 21 -4 16 21 19
101 5 110 -5 3 -12 2 -14 -2z"/>
<path d="M2210 1910 c0 -6 42 -9 108 -9 90 1 99 3 57 9 -73 12 -165 12 -165 0z"/>
<path d="M4005 1694 c-71 -7 -210 -18 -307 -22 -98 -4 -181 -11 -184 -15 -16
-16 12 -22 84 -20 44 2 87 -2 99 -9 17 -8 32 -8 63 1 21 6 113 16 202 21 198
12 271 20 289 31 44 27 -68 33 -246 13z"/>
<path d="M1944 1687 c-11 -30 0 -255 14 -269 28 -28 34 6 23 137 -10 123 -23
169 -37 132z"/>
<path d="M1772 1670 c0 -14 2 -19 5 -12 2 6 2 18 0 25 -3 6 -5 1 -5 -13z"/>
<path d="M3160 1680 c0 -5 10 -10 23 -10 12 -1 33 -7 47 -15 29 -16 128 -20
150 -5 13 9 12 12 -4 25 -23 18 -216 22 -216 5z"/>
<path d="M776 1603 c-10 -38 -18 -152 -11 -174 7 -22 8 -22 21 -5 18 26 28 97
20 151 -7 46 -21 59 -30 28z"/>
<path d="M1756 1384 c-12 -32 -6 -151 8 -163 22 -18 28 13 20 101 -6 75 -15
95 -28 62z"/>
<path d="M1571 1248 c2 -167 16 -143 18 30 1 69 -3 112 -9 112 -6 0 -10 -53
-9 -142z"/>
<path d="M3164 1359 c-4 -7 -9 -73 -12 -149 -3 -102 -2 -139 8 -145 22 -13 34
15 41 91 9 112 0 108 233 99 l197 -7 -7 -117 c-9 -154 10 -139 33 27 22 156
22 156 -92 136 -106 -17 -247 -18 -288 0 -18 7 -41 23 -52 36 -28 31 -52 43
-61 29z"/>
<path d="M3969 1311 c-35 -35 -36 -47 -8 -62 25 -13 151 -17 192 -6 32 9 36
27 7 27 -24 0 -73 23 -109 51 -32 26 -48 24 -82 -10z"/>
<path d="M2055 1313 c-11 -29 -17 -334 -7 -383 7 -36 11 -41 16 -25 4 11 19
45 32 75 l25 55 -16 135 c-16 133 -33 184 -50 143z"/>
<path d="M5716 1248 c-9 -36 -7 -96 4 -103 6 -4 10 18 10 59 0 69 -4 81 -14
44z"/>
<path d="M767 1138 c-10 -35 -8 -148 2 -148 19 0 29 132 12 158 -6 10 -10 8
-14 -10z"/>
<path d="M904 1095 c8 -112 12 -135 24 -147 20 -20 23 13 8 99 -20 113 -38
141 -32 48z"/>
<path d="M1651 1038 c0 -40 4 -91 8 -113 l7 -40 8 48 c8 55 -2 177 -15 177 -5
0 -9 -33 -8 -72z"/>
<path d="M1773 980 c0 -30 2 -43 4 -27 2 15 2 39 0 55 -2 15 -4 2 -4 -28z"/>
<path d="M5697 1023 c-11 -10 -8 -63 3 -63 6 0 10 16 10 35 0 36 -2 40 -13 28z"/>
<path d="M746 925 c-4 -11 -10 -87 -13 -170 -4 -135 -3 -148 11 -131 34 42 48
230 22 291 -11 27 -13 28 -20 10z"/>
<path d="M1134 825 c-3 -19 -2 -51 4 -72 9 -36 10 -33 11 35 1 78 -4 92 -15
37z"/>
<path d="M3216 844 c-26 -9 -47 -17 -45 -18 2 -2 39 -6 82 -10 66 -6 78 -5 84
10 13 35 -39 43 -121 18z"/>
<path d="M826 806 c-7 -27 1 -56 15 -56 12 0 12 67 0 74 -5 3 -12 -5 -15 -18z"/>
<path d="M3590 815 c-9 -11 -10 -19 -2 -27 6 -6 92 -16 192 -24 214 -15 220
-17 220 -100 0 -65 13 -75 40 -32 16 26 19 43 14 80 -7 55 -9 54 128 61 87 5
113 11 103 27 -3 5 -119 6 -258 3 -177 -4 -268 -2 -307 6 -104 23 -115 24
-130 6z"/>
<path d="M1746 773 c-3 -3 -6 -14 -6 -24 0 -21 48 -39 104 -38 l41 0 -38 14
c-21 8 -51 23 -66 34 -16 11 -31 18 -35 14z"/>
<path d="M3450 694 c-12 -32 -13 -154 -1 -173 6 -10 11 4 16 45 5 32 14 76 21
98 18 51 18 56 -6 56 -13 0 -24 -10 -30 -26z"/>
<path d="M822 668 c-7 -26 -12 -63 -12 -83 l0 -36 29 20 c37 27 101 18 116
-17 12 -27 32 -28 40 -2 3 11 18 23 32 26 26 7 166 -1 216 -12 16 -4 27 -2 27
5 0 20 -111 43 -242 50 -140 8 -145 10 -184 77 -9 16 -12 12 -22 -28z"/>
<path d="M1570 635 c-3 -13 -1 -44 6 -72 3 -16 12 -23 29 -23 14 0 25 5 25 10
0 6 -9 10 -20 10 -12 0 -21 8 -24 23 -3 12 -7 31 -9 42 -3 11 -6 16 -7 10z"/>
<path d="M1666 551 c-3 -5 1 -14 8 -20 16 -13 32 2 21 19 -8 12 -22 13 -29 1z"/>
<path d="M1852 518 c25 -7 43 -6 55 1 14 8 6 10 -37 10 -55 -1 -55 -1 -18 -11z"/>
<path d="M2006 512 c-11 -19 27 -22 237 -21 239 2 212 12 -59 23 -109 5 -174
4 -178 -2z"/>
<path d="M2660 480 c-8 -5 -37 -10 -63 -10 -51 0 -70 -18 -47 -45 25 -31 107
-12 134 30 20 31 7 45 -24 25z"/>
<path d="M1551 461 c-14 -25 -14 -178 -1 -186 5 -3 16 19 25 49 27 91 8 197
-24 137z"/>
<path d="M1438 433 c-6 -49 2 -123 13 -123 5 0 9 36 9 80 0 82 -14 109 -22 43z"/>
<path d="M1666 448 c-12 -48 -4 -118 14 -118 11 0 20 65 13 105 -6 40 -18 45
-27 13z"/>
<path d="M1846 451 c-22 -34 -17 -166 5 -144 14 14 24 139 11 147 -6 3 -13 2
-16 -3z"/>
<path d="M1753 410 c0 -25 2 -35 4 -22 2 12 2 32 0 45 -2 12 -4 2 -4 -23z"/>
<path d="M2077 404 c-12 -12 -8 -102 5 -110 14 -9 38 23 38 52 0 25 -32 69
-43 58z"/>
<path d="M2198 364 c-8 -8 3 -44 13 -44 5 0 9 11 9 25 0 24 -10 32 -22 19z"/>
</g>
</svg>
